<svg width="345" height="254" viewBox="0 0 345 254" fill="none" xmlns="http://www.w3.org/2000/svg">
<rect width="345" height="254" fill="white"/>
<path d="M259.563 108.634H305.801H318.18L308.631 115.524V129.08C308.631 130.644 307.364 131.911 305.801 131.911H259.563C258 131.911 256.732 130.644 256.732 129.08V111.464C256.732 109.901 258 108.634 259.563 108.634Z" fill="#F5F5F5"/>
<path d="M262.016 118.213C262.016 118.27 270.856 118.315 281.759 118.315C292.666 118.315 301.505 118.27 301.505 118.213C301.505 118.156 292.666 118.11 281.759 118.11C270.856 118.111 262.016 118.156 262.016 118.213Z" fill="#E0E0E0"/>
<path d="M262.016 123.418C262.016 123.474 270.856 123.52 281.759 123.52C292.666 123.52 301.505 123.475 301.505 123.418C301.505 123.361 292.666 123.315 281.759 123.315C270.856 123.315 262.016 123.361 262.016 123.418Z" fill="#E0E0E0"/>
<path d="M170.552 58.6118H167.809V67.8005H170.552V58.6118Z" fill="#E0E0E0"/>
<path d="M147.639 57.2793H144.896V67.7992H147.639V57.2793Z" fill="#E0E0E0"/>
<path d="M153.362 55.0889H150.619V67.8013H153.362V55.0889Z" fill="#E0E0E0"/>
<path d="M159.093 55.7842H156.35V67.7994H159.093V55.7842Z" fill="#E0E0E0"/>
<path d="M164.827 51.7197H162.084V67.7996H164.827V51.7197Z" fill="#E0E0E0"/>
<path d="M176.274 51.7993H173.531V67.8011H176.274V51.7993Z" fill="#E0E0E0"/>
<path d="M182.001 57.0537H179.258V67.7998H182.001V57.0537Z" fill="#E0E0E0"/>
<path d="M187.733 52.5029H184.99V67.7996H187.733V52.5029Z" fill="#E0E0E0"/>
<path d="M193.464 49.0576H190.721V67.8003H193.464V49.0576Z" fill="#E0E0E0"/>
<path d="M199.186 52.4253H196.443V67.8005H199.186V52.4253Z" fill="#E0E0E0"/>
<path d="M271.454 66.9478L294.139 63.4816C296.041 75.9263 287.365 87.7313 274.921 89.633C262.476 91.5344 250.671 82.859 248.769 70.4144C246.868 57.9697 255.543 46.1647 267.988 44.2634C269.969 43.9606 271.982 43.9186 273.974 44.1387L271.454 66.9478Z" fill="#EBEBEB"/>
<path d="M278.819 44.2114L276.064 61.7961L293.326 58.5546C293.326 58.5546 290.787 48.6998 278.819 44.2114Z" fill="#E0E0E0"/>
<path d="M39.8315 109.607C39.732 103.377 44.6964 98.2269 50.8977 98.127C57.0991 98.027 62.2255 103.014 62.3251 109.244C62.4246 115.474 57.4603 120.624 51.2589 120.724C45.0576 120.824 39.9311 115.837 39.8315 109.607ZM56.4557 109.339C56.408 106.36 53.9571 103.975 50.9919 104.023C48.0268 104.071 45.6532 106.533 45.7009 109.512C45.7487 112.491 48.1996 114.875 51.1647 114.828C54.1298 114.78 56.5034 112.317 56.4557 109.339Z" fill="#F5F5F5"/>
<path d="M39.8315 109.606C39.732 103.376 44.6964 98.2264 50.8973 98.1265L50.9915 104.023C48.0264 104.07 45.6528 106.533 45.7005 109.512C45.7482 112.491 48.1992 114.875 51.1643 114.827L51.2585 120.723C45.0576 120.824 39.9311 115.837 39.8315 109.606Z" fill="#E0E0E0"/>
<path d="M49.8887 97.2186C57.1439 97.1014 62.9315 102.732 63.0479 110.021L56.1813 110.131C56.1258 106.646 53.4737 104.452 50.0051 104.508L49.8887 97.2186Z" fill="#EBEBEB"/>
<path d="M112.908 149.278H98.6113V166.275H112.908V149.278Z" fill="#F5F5F5"/>
<path d="M99.1098 148.17H34.498V167.344H99.1098V148.17Z" fill="#E0E0E0"/>
<path d="M113.341 149.782H97.3711V148.17H113.341C113.786 148.17 114.147 148.531 114.147 148.976C114.147 149.421 113.786 149.782 113.341 149.782Z" fill="#E0E0E0"/>
<path d="M113.341 167.343H97.3711V165.73H113.341C113.786 165.73 114.147 166.091 114.147 166.537C114.147 166.982 113.786 167.343 113.341 167.343Z" fill="#E0E0E0"/>
<path d="M94.0259 148.168H86.3926V167.342H94.0259V148.168Z" fill="#EBEBEB"/>
<path d="M48.2705 148.382H40.6367V167.556H48.2705V148.382Z" fill="#EBEBEB"/>
<path d="M112.909 152.087C112.909 152.134 109.815 152.172 105.999 152.172C102.181 152.172 99.0879 152.134 99.0879 152.087C99.0879 152.04 102.181 152.002 105.999 152.002C109.815 152.002 112.909 152.04 112.909 152.087Z" fill="#E0E0E0"/>
<path d="M112.909 154.638C112.909 154.685 109.815 154.723 105.999 154.723C102.181 154.723 99.0879 154.685 99.0879 154.638C99.0879 154.591 102.181 154.553 105.999 154.553C109.815 154.553 112.909 154.591 112.909 154.638Z" fill="#E0E0E0"/>
<path d="M112.909 157.777C112.909 157.823 109.815 157.861 105.999 157.861C102.181 157.861 99.0879 157.823 99.0879 157.777C99.0879 157.73 102.181 157.691 105.999 157.691C109.815 157.691 112.909 157.73 112.909 157.777Z" fill="#E0E0E0"/>
<path d="M112.909 160.914C112.909 160.961 109.815 160.999 105.999 160.999C102.181 160.999 99.0879 160.961 99.0879 160.914C99.0879 160.867 102.181 160.829 105.999 160.829C109.815 160.829 112.909 160.867 112.909 160.914Z" fill="#E0E0E0"/>
<path d="M112.909 164.051C112.909 164.097 109.815 164.135 105.999 164.135C102.181 164.135 99.0879 164.097 99.0879 164.051C99.0879 164.004 102.181 163.966 105.999 163.966C109.815 163.965 112.909 164.004 112.909 164.051Z" fill="#E0E0E0"/>
<path d="M82.2828 156.049H53.2148V159.502H82.2828V156.049Z" fill="#EBEBEB"/>
<path d="M112.757 167.72H98.2402V178.077H112.757V167.72Z" fill="#FAFAFA"/>
<path d="M98.4024 167.342H36.625V178.45H98.4024V167.342Z" fill="#F5F5F5"/>
<path d="M97.9551 168.094H113.558C113.766 168.094 113.933 167.926 113.933 167.718C113.933 167.511 113.765 167.342 113.558 167.342H97.9551V168.094Z" fill="#F5F5F5"/>
<path d="M97.9551 178.451H113.761C113.856 178.451 113.933 178.374 113.933 178.279V177.872C113.933 177.777 113.856 177.7 113.761 177.7H97.9551V178.451Z" fill="#F5F5F5"/>
<path d="M112.753 169.686C112.753 169.733 109.539 169.771 105.576 169.771C101.611 169.771 98.3984 169.733 98.3984 169.686C98.3984 169.639 101.611 169.601 105.576 169.601C109.539 169.601 112.753 169.639 112.753 169.686Z" fill="#E0E0E0"/>
<path d="M112.753 171.645C112.753 171.692 109.539 171.73 105.576 171.73C101.611 171.73 98.3984 171.693 98.3984 171.645C98.3984 171.598 101.611 171.561 105.576 171.561C109.539 171.561 112.753 171.598 112.753 171.645Z" fill="#E0E0E0"/>
<path d="M112.753 173.604C112.753 173.651 109.539 173.689 105.576 173.689C101.611 173.689 98.3984 173.652 98.3984 173.604C98.3984 173.557 101.611 173.52 105.576 173.52C109.539 173.52 112.753 173.557 112.753 173.604Z" fill="#E0E0E0"/>
<path d="M112.753 175.566C112.753 175.613 109.539 175.65 105.576 175.65C101.611 175.65 98.3984 175.613 98.3984 175.566C98.3984 175.519 101.611 175.481 105.576 175.481C109.539 175.481 112.753 175.519 112.753 175.566Z" fill="#E0E0E0"/>
<path d="M114.965 179.438H100.148V207.513H114.965V179.438Z" fill="#EBEBEB"/>
<path d="M100.153 178.451H30.6035V208.892H100.153V178.451Z" fill="#E0E0E0"/>
<path d="M116.12 208.892H98.2422V206.917H116.12C116.665 206.917 117.107 207.359 117.107 207.904C117.107 208.449 116.665 208.892 116.12 208.892Z" fill="#E0E0E0"/>
<path d="M116.654 180.425H98.2422V178.451H116.654C116.904 178.451 117.107 178.654 117.107 178.904V179.972C117.107 180.223 116.904 180.425 116.654 180.425Z" fill="#E0E0E0"/>
<path d="M114.965 183.201C114.965 183.248 111.648 183.286 107.557 183.286C103.465 183.286 100.148 183.248 100.148 183.201C100.148 183.155 103.465 183.117 107.557 183.117C111.648 183.117 114.965 183.155 114.965 183.201Z" fill="#E0E0E0"/>
<path d="M114.965 186.803C114.965 186.849 111.648 186.887 107.557 186.887C103.465 186.887 100.148 186.849 100.148 186.803C100.148 186.756 103.465 186.718 107.557 186.718C111.648 186.718 114.965 186.756 114.965 186.803Z" fill="#E0E0E0"/>
<path d="M114.965 190.403C114.965 190.45 111.648 190.487 107.557 190.487C103.465 190.487 100.148 190.45 100.148 190.403C100.148 190.356 103.465 190.318 107.557 190.318C111.648 190.318 114.965 190.356 114.965 190.403Z" fill="#E0E0E0"/>
<path d="M114.965 194.004C114.965 194.051 111.648 194.089 107.557 194.089C103.465 194.089 100.148 194.051 100.148 194.004C100.148 193.957 103.465 193.919 107.557 193.919C111.648 193.919 114.965 193.957 114.965 194.004Z" fill="#E0E0E0"/>
<path d="M114.965 197.604C114.965 197.651 111.648 197.689 107.557 197.689C103.465 197.689 100.148 197.651 100.148 197.604C100.148 197.557 103.465 197.52 107.557 197.52C111.648 197.52 114.965 197.557 114.965 197.604Z" fill="#E0E0E0"/>
<path d="M114.965 201.205C114.965 201.252 111.648 201.29 107.557 201.29C103.465 201.29 100.148 201.252 100.148 201.205C100.148 201.158 103.465 201.121 107.557 201.121C111.648 201.12 114.965 201.158 114.965 201.205Z" fill="#E0E0E0"/>
<path d="M114.965 204.806C114.965 204.853 111.648 204.891 107.557 204.891C103.465 204.891 100.148 204.853 100.148 204.806C100.148 204.76 103.465 204.722 107.557 204.722C111.648 204.721 114.965 204.76 114.965 204.806Z" fill="#E0E0E0"/>
<path d="M54.3938 195.338V197.032C54.3938 199.071 53.374 200.237 51.4069 200.237C49.4401 200.237 48.4199 199.072 48.4199 197.032V190.403C48.4199 188.363 49.4397 187.197 51.4069 187.197C53.3736 187.197 54.3938 188.363 54.3938 190.403V191.641H52.4999V190.276C52.4999 189.365 52.0992 189.019 51.462 189.019C50.8244 189.019 50.4237 189.365 50.4237 190.276V197.16C50.4237 198.071 50.8244 198.398 51.462 198.398C52.0992 198.398 52.4999 198.071 52.4999 197.16V195.339H54.3938V195.338Z" fill="#EBEBEB"/>
<path d="M55.4473 190.403C55.4473 188.363 56.5218 187.197 58.4885 187.197C60.4552 187.197 61.5301 188.363 61.5301 190.403V197.032C61.5301 199.071 60.4557 200.237 58.4885 200.237C56.5213 200.237 55.4473 199.072 55.4473 197.032V190.403ZM57.4506 197.16C57.4506 198.071 57.8513 198.416 58.4885 198.416C59.1261 198.416 59.5268 198.071 59.5268 197.16V190.276C59.5268 189.365 59.1261 189.019 58.4885 189.019C57.8513 189.019 57.4506 189.365 57.4506 190.276V197.16Z" fill="#EBEBEB"/>
<path d="M62.8223 187.343H64.8256V198.271H68.1219V200.092H62.8223V187.343Z" fill="#EBEBEB"/>
<path d="M68.8301 190.403C68.8301 188.363 69.9046 187.197 71.8717 187.197C73.8385 187.197 74.9134 188.363 74.9134 190.403V197.032C74.9134 199.071 73.8389 200.237 71.8717 200.237C69.9046 200.237 68.8301 199.072 68.8301 197.032V190.403ZM70.8334 197.16C70.8334 198.071 71.2341 198.416 71.8717 198.416C72.5089 198.416 72.91 198.071 72.91 197.16V190.276C72.91 189.365 72.5093 189.019 71.8717 189.019C71.2341 189.019 70.8334 189.365 70.8334 190.276V197.16Z" fill="#EBEBEB"/>
<path d="M78.1186 187.343V197.177C78.1186 198.088 78.5193 198.416 79.1569 198.416C79.7945 198.416 80.1952 198.088 80.1952 197.177V187.343H82.0891V197.05C82.0891 199.089 81.0693 200.255 79.1022 200.255C77.1354 200.255 76.1152 199.09 76.1152 197.05V187.343H78.1186Z" fill="#EBEBEB"/>
<path d="M87.6401 200.091C87.5307 199.763 87.4579 199.563 87.4579 198.525V196.522C87.4579 195.338 87.0572 194.901 86.1464 194.901H85.4545V200.091H83.4512V187.343H86.4743C88.5505 187.343 89.4427 188.308 89.4427 190.275V191.277C89.4427 192.588 89.024 193.444 88.1313 193.863C89.133 194.282 89.4608 195.247 89.4608 196.577V198.543C89.4608 199.163 89.4789 199.618 89.6793 200.091L87.6401 200.091ZM85.4545 189.164V193.08H86.2378C86.9844 193.08 87.4398 192.752 87.4398 191.732V190.475C87.4398 189.565 87.13 189.164 86.42 189.164H85.4545Z" fill="#EBEBEB"/>
<path d="M53.9608 171.718H52.5L52.5769 171.339H55.9304L55.8477 171.718H54.3923L53.6411 175.479H53.2096L53.9608 171.718Z" fill="#E0E0E0"/>
<path d="M58.7452 172.368L56.474 175.882C56.0898 176.473 55.7998 176.656 55.3506 176.656C55.061 176.656 54.7648 176.555 54.6113 176.378L54.8359 176.071C54.9721 176.212 55.1494 176.295 55.3859 176.295C55.6525 176.295 55.859 176.171 56.1017 175.793L56.3206 175.462L55.5455 172.368H55.9713L56.6159 175.017L58.3132 172.368H58.7452V172.368Z" fill="#E0E0E0"/>
<path d="M62.2009 173.658C62.2009 174.728 61.4559 175.509 60.4386 175.509C59.847 175.509 59.4328 175.266 59.2555 174.829L58.9009 176.627H58.4805L59.3267 172.368H59.7286L59.6282 172.866C59.924 172.534 60.3382 172.345 60.8409 172.345C61.6389 172.346 62.2009 172.842 62.2009 173.658ZM61.7751 173.682C61.7751 173.073 61.4024 172.712 60.7516 172.712C59.977 172.712 59.4093 173.321 59.4093 174.172C59.4093 174.782 59.782 175.136 60.4324 175.136C61.2074 175.137 61.7751 174.528 61.7751 173.682Z" fill="#E0E0E0"/>
<path d="M62.6895 174.191C62.6895 173.132 63.4406 172.346 64.4871 172.346C65.3506 172.346 65.9006 172.855 65.9006 173.659C65.9006 174.723 65.1494 175.509 64.1029 175.509C63.2399 175.51 62.6895 174.989 62.6895 174.191ZM65.481 173.683C65.481 173.073 65.1083 172.713 64.4579 172.713C63.6829 172.713 63.1095 173.327 63.1095 174.173C63.1095 174.782 63.4822 175.137 64.1325 175.137C64.9075 175.137 65.481 174.528 65.481 173.683Z" fill="#E0E0E0"/>
<path d="M69.9287 172.369L69.3848 175.102C69.166 176.202 68.5864 176.657 67.5752 176.657C66.9895 176.657 66.5106 176.492 66.1914 176.19L66.4399 175.87C66.6879 176.125 67.1083 176.285 67.6053 176.285C68.3914 176.285 68.8056 175.923 68.9533 175.173L69.0245 174.829C68.7287 175.161 68.3087 175.362 67.7826 175.362C66.9603 175.362 66.4103 174.883 66.4103 174.108C66.4103 173.109 67.1495 172.346 68.1845 172.346C68.7579 172.346 69.2195 172.582 69.3968 173.056L69.5268 172.369H69.9287V172.369ZM69.2191 173.616C69.2191 173.049 68.8344 172.712 68.1898 172.712C67.4033 172.712 66.8356 173.292 66.8356 174.084C66.8356 174.651 67.2141 174.989 67.8648 174.989C68.6452 174.989 69.2191 174.409 69.2191 173.616Z" fill="#E0E0E0"/>
<path d="M72.6705 172.346L72.5936 172.754C72.552 172.754 72.5224 172.748 72.4751 172.748C71.8128 172.748 71.3693 173.126 71.2155 173.901L70.9024 175.48H70.4824L71.0978 172.369H71.4997L71.3932 172.937C71.6709 172.529 72.0789 172.346 72.6705 172.346Z" fill="#E0E0E0"/>
<path d="M76.2334 172.369L75.6126 175.48H75.2103L75.3107 174.989C75.0149 175.315 74.6011 175.51 74.0984 175.51C73.3003 175.51 72.7441 175.013 72.7441 174.191C72.7441 173.126 73.4895 172.346 74.5007 172.346C75.0922 172.346 75.5061 172.588 75.6834 173.02L75.8138 172.369H76.2334V172.369ZM75.5357 173.682C75.5357 173.073 75.163 172.712 74.5126 172.712C73.738 172.712 73.1642 173.327 73.1642 174.172C73.1642 174.782 73.5368 175.136 74.1872 175.136C74.9618 175.137 75.5357 174.528 75.5357 173.682Z" fill="#E0E0E0"/>
<path d="M80.2723 173.658C80.2723 174.728 79.5273 175.509 78.51 175.509C77.9185 175.509 77.5042 175.266 77.3269 174.829L76.9723 176.627H76.5527L77.3985 172.368H77.8004L77.7 172.866C77.9958 172.534 78.4101 172.345 78.9127 172.345C79.7104 172.346 80.2723 172.842 80.2723 173.658ZM79.8466 173.682C79.8466 173.073 79.4739 172.712 78.8235 172.712C78.0489 172.712 77.4808 173.321 77.4808 174.172C77.4808 174.782 77.8535 175.136 78.5039 175.136C79.2789 175.137 79.8466 174.528 79.8466 173.682Z" fill="#E0E0E0"/>
<path d="M84.0364 173.357C84.0364 173.469 84.0245 173.587 84.0006 173.711L83.646 175.479H83.226L83.581 173.705C83.5983 173.604 83.6102 173.51 83.6102 173.421C83.6102 172.978 83.3441 172.724 82.806 172.724C82.1437 172.724 81.6883 173.084 81.5402 173.812L81.2091 175.479H80.7891L81.6645 171.091H82.084L81.7352 172.835C82.031 172.499 82.4448 172.345 82.9241 172.345C83.6279 172.345 84.0364 172.724 84.0364 173.357Z" fill="#E0E0E0"/>
<path d="M87.9678 172.368L85.6967 175.882C85.312 176.473 85.0224 176.656 84.5732 176.656C84.2836 176.656 83.9874 176.555 83.834 176.378L84.0586 176.071C84.1947 176.212 84.3721 176.295 84.6086 176.295C84.8752 176.295 85.0817 176.171 85.3244 175.793L85.5432 175.462L84.7682 172.368H85.194L85.8386 175.017L87.5359 172.368H87.9678V172.368Z" fill="#E0E0E0"/>
<path d="M97.3351 44.5249H47.5621H34.2363L44.5152 51.9423V66.5351C44.5152 68.218 45.8792 69.5825 47.5621 69.5825H97.3351C99.018 69.5825 100.382 68.2184 100.382 66.5351V47.5723C100.382 45.889 99.0184 44.5249 97.3351 44.5249Z" fill="#F5F5F5"/>
<path d="M94.7078 54.8373C94.7078 54.8982 85.1913 54.9475 73.4545 54.9475C61.7137 54.9475 52.1992 54.8982 52.1992 54.8373C52.1992 54.7764 61.7137 54.7271 73.4545 54.7271C85.1908 54.7271 94.7078 54.7764 94.7078 54.8373Z" fill="#E0E0E0"/>
<path d="M94.7078 60.4398C94.7078 60.5007 85.1913 60.5501 73.4545 60.5501C61.7137 60.5501 52.1992 60.5007 52.1992 60.4398C52.1992 60.379 61.7137 60.3296 73.4545 60.3296C85.1908 60.3296 94.7078 60.379 94.7078 60.4398Z" fill="#E0E0E0"/>
<path d="M316.176 208.893C316.176 208.952 251.661 209 172.095 209C92.5019 209 28 208.952 28 208.893C28 208.834 92.5019 208.786 172.095 208.786C251.661 208.786 316.176 208.834 316.176 208.893Z" fill="#263238"/>
<path d="M289.106 187.897C289.106 187.897 278.201 175.347 274.087 162.797C269.972 150.246 271.927 151.686 271.927 151.686C271.927 151.686 277.482 163.878 281.7 169.767C285.917 175.656 293.427 184.297 293.427 184.297L289.106 187.897Z" fill="#455A64"/>
<path d="M291.279 153.641C290.927 153.029 289.991 153.346 290.096 154.045C290.761 158.453 292.198 168.799 292.141 175.508C292.068 184.225 292.144 187.594 292.144 187.594H296.683C296.683 187.594 295.877 169.575 294.852 164.082C294.132 160.23 292.606 155.953 291.279 153.641Z" fill="#455A64"/>
<path d="M293.752 186.128C293.752 186.128 296.609 180.122 297.488 172.578C297.862 169.369 297.195 165.033 296.203 159.247C295.722 156.445 295.614 154.312 295.629 152.833C295.641 151.715 297.116 151.35 297.662 152.325C298.21 153.303 299.795 156.642 300.198 158.735C301.296 164.448 302.542 167.305 301.589 172.725C300.637 178.145 297.121 186.495 297.121 186.495L293.752 186.128Z" fill="#455A64"/>
<path d="M297.842 186.496C297.842 186.496 309.814 160.767 310.644 156.95C311.474 153.133 314.295 144.337 314.627 144.835C314.959 145.332 315.457 149.98 313.299 155.29C311.142 160.601 301.93 187.28 301.93 187.28H297.842" fill="#455A64"/>
<path d="M292.442 185.344C292.437 185.351 292.322 185.272 292.107 185.114C291.894 184.952 291.572 184.726 291.179 184.406C290.382 183.78 289.264 182.827 287.961 181.565C285.348 179.055 282.095 175.186 279.275 170.417C276.449 165.649 274.549 160.987 273.346 157.574C272.744 155.865 272.305 154.466 272.02 153.494C271.873 153.01 271.772 152.629 271.702 152.372C271.633 152.115 271.6 151.978 271.609 151.976C271.617 151.973 271.666 152.105 271.751 152.357C271.842 152.633 271.962 153.002 272.114 153.465C272.428 154.427 272.893 155.815 273.516 157.513C274.76 160.904 276.68 165.539 279.495 170.287C282.303 175.036 285.516 178.903 288.087 181.437C289.369 182.71 290.465 183.681 291.241 184.329C291.623 184.661 291.935 184.899 292.137 185.074C292.343 185.244 292.448 185.337 292.442 185.344Z" fill="#263238"/>
<path d="M293.751 173.001C293.733 173.003 293.696 172.734 293.643 172.247C293.586 171.714 293.512 171.02 293.423 170.184C293.233 168.443 292.938 166.043 292.515 163.406C292.09 160.769 291.618 158.396 291.253 156.683C291.076 155.862 290.928 155.179 290.816 154.656C290.713 154.177 290.664 153.909 290.681 153.905C290.698 153.901 290.78 154.16 290.912 154.632C291.046 155.104 291.224 155.791 291.429 156.643C291.84 158.348 292.341 160.721 292.767 163.365C293.191 166.009 293.459 168.419 293.603 170.166C293.675 171.04 293.722 171.748 293.743 172.239C293.764 172.729 293.768 173 293.751 173.001Z" fill="#263238"/>
<path d="M296.557 152.124C296.565 152.121 296.613 152.234 296.698 152.451C296.789 152.693 296.908 153.011 297.057 153.407C297.215 153.821 297.398 154.333 297.571 154.939C297.749 155.543 297.98 156.224 298.153 156.999C298.247 157.385 298.347 157.789 298.449 158.209C298.55 158.63 298.621 159.075 298.713 159.533C298.908 160.446 299.029 161.437 299.175 162.477C299.409 164.562 299.537 166.872 299.461 169.295C299.363 171.718 299.07 174.013 298.687 176.077C298.468 177.104 298.276 178.083 298.016 178.981C297.892 179.43 297.789 179.87 297.658 180.283C297.525 180.694 297.398 181.09 297.275 181.468C297.047 182.229 296.768 182.891 296.547 183.481C296.331 184.073 296.113 184.57 295.925 184.973C295.748 185.357 295.607 185.665 295.499 185.9C295.399 186.111 295.343 186.22 295.335 186.216C295.327 186.212 295.367 186.096 295.452 185.879C295.549 185.639 295.676 185.326 295.834 184.933C296.007 184.527 296.211 184.026 296.414 183.43C296.621 182.838 296.887 182.173 297.104 181.412C297.22 181.034 297.342 180.638 297.469 180.227C297.594 179.814 297.691 179.376 297.811 178.927C298.061 178.032 298.244 177.056 298.456 176.033C298.824 173.978 299.108 171.695 299.205 169.286C299.28 166.876 299.161 164.58 298.941 162.503C298.802 161.468 298.69 160.482 298.505 159.571C298.418 159.115 298.352 158.671 298.256 158.25C298.159 157.831 298.066 157.427 297.977 157.042C297.816 156.267 297.598 155.585 297.434 154.979C297.274 154.371 297.106 153.857 296.963 153.439C296.833 153.037 296.729 152.714 296.65 152.469C296.581 152.246 296.548 152.127 296.557 152.124Z" fill="#263238"/>
<path d="M314.493 145.351C314.497 145.352 314.495 145.391 314.484 145.467C314.469 145.557 314.452 145.667 314.431 145.801C314.378 146.094 314.312 146.528 314.195 147.082C313.963 148.189 313.578 149.782 312.98 151.714C312.383 153.647 311.565 155.913 310.596 158.403C309.63 160.893 308.507 163.607 307.444 166.496C306.365 169.38 305.533 172.195 304.752 174.75C303.978 177.306 303.244 179.601 302.534 181.495C301.831 183.392 301.154 184.886 300.643 185.895C300.398 186.405 300.178 186.785 300.035 187.047C299.968 187.165 299.913 187.262 299.868 187.341C299.829 187.406 299.807 187.439 299.803 187.437C299.799 187.435 299.814 187.398 299.845 187.328C299.884 187.246 299.932 187.145 299.99 187.023C300.117 186.754 300.323 186.367 300.554 185.852C301.036 184.832 301.685 183.333 302.364 181.433C303.05 179.536 303.765 177.241 304.527 174.682C305.295 172.125 306.122 169.3 307.204 166.408C308.27 163.512 309.399 160.8 310.376 158.317C311.357 155.834 312.191 153.58 312.807 151.659C313.427 149.739 313.837 148.158 314.098 147.06C314.229 146.511 314.311 146.08 314.38 145.791C314.411 145.659 314.437 145.551 314.458 145.462C314.477 145.388 314.489 145.35 314.493 145.351Z" fill="#263238"/>
<path d="M277.568 139.668C276.814 138.919 275.559 139.702 275.871 140.719C276.188 141.75 276.668 143.083 277.376 144.588C279.021 148.085 283.857 160.636 286.12 167.528C288.383 174.42 291.572 187.279 291.572 187.279L296.405 186.495C296.405 186.495 291.983 165.367 287.663 157.755C284.191 151.639 280.72 142.799 277.568 139.668Z" fill="#455A64"/>
<path d="M287.442 171.839C287.459 171.833 287.547 172.039 287.691 172.418C287.834 172.797 288.029 173.351 288.249 174.041C288.694 175.419 289.238 177.345 289.787 179.484C290.334 181.625 290.79 183.571 291.108 184.983C291.253 185.65 291.375 186.211 291.472 186.657C291.553 187.054 291.589 187.275 291.572 187.28C291.555 187.284 291.486 187.071 291.375 186.681C291.258 186.24 291.109 185.686 290.933 185.025C290.563 183.572 290.077 181.661 289.54 179.548C288.992 177.411 288.475 175.482 288.075 174.094C287.885 173.438 287.725 172.888 287.597 172.45C287.482 172.062 287.426 171.845 287.442 171.839Z" fill="#263238"/>
<path d="M293.996 186.887C293.991 186.887 293.982 186.844 293.969 186.758C293.954 186.658 293.936 186.533 293.914 186.378C293.863 186.044 293.818 185.547 293.716 184.914C293.539 183.644 293.222 181.815 292.703 179.583C292.187 177.351 291.435 174.724 290.441 171.862C289.449 168.999 288.206 165.905 286.797 162.703C283.954 156.307 281.114 150.634 279.247 146.44C278.304 144.347 277.574 142.639 277.093 141.448C276.848 140.855 276.672 140.389 276.549 140.074C276.495 139.927 276.451 139.808 276.415 139.713C276.386 139.631 276.374 139.589 276.378 139.587C276.382 139.586 276.403 139.625 276.439 139.704C276.481 139.796 276.533 139.912 276.597 140.054C276.739 140.382 276.936 140.836 277.184 141.41C277.693 142.587 278.448 144.283 279.412 146.365C281.319 150.537 284.184 156.195 287.031 162.601C288.442 165.808 289.682 168.911 290.664 171.786C291.648 174.66 292.384 177.299 292.879 179.543C293.377 181.786 293.667 183.626 293.815 184.901C293.902 185.538 293.931 186.036 293.965 186.372C293.977 186.528 293.987 186.654 293.995 186.756C294 186.842 294 186.886 293.996 186.887Z" fill="#263238"/>
<path d="M296.408 186.496C296.39 186.498 296.333 186.209 296.245 185.684C296.149 185.116 296.022 184.367 295.869 183.462C295.536 181.589 295.028 179.01 294.297 176.203C293.573 173.393 292.757 170.894 292.13 169.099C291.822 168.234 291.567 167.518 291.374 166.976C291.193 166.475 291.101 166.195 291.117 166.189C291.134 166.182 291.257 166.449 291.467 166.939C291.675 167.43 291.966 168.144 292.3 169.037C292.972 170.82 293.818 173.319 294.544 176.139C295.277 178.955 295.759 181.549 296.047 183.432C296.185 184.375 296.29 185.139 296.344 185.669C296.402 186.2 296.425 186.493 296.408 186.496Z" fill="#263238"/>
<path d="M306.323 185.801H287.459V208.785H306.323V185.801Z" fill="#3C3C3C"/>
<g opacity="0.3">
<path d="M306.323 185.801H287.459V208.785H306.323V185.801Z" fill="black"/>
</g>
<path d="M300.308 185.801H283.572V208.785H300.308V185.801Z" fill="#3C3C3C"/>
<path d="M55.0658 177.81C51.8526 175.752 47.3987 175.713 44.2715 177.899C41.3027 179.974 39.795 183.752 39.9258 187.372C40.0566 190.992 41.8115 195.416 45.0913 197.317L54.7186 197.279C57.7927 195.019 59.8713 191.377 60.0161 187.564C60.1614 183.752 58.2789 179.868 55.0658 177.81Z" fill="#455A64"/>
<path d="M50.3313 197.668C50.31 197.668 50.2898 197.373 50.2709 196.839C50.254 196.247 50.2326 195.489 50.2067 194.581C50.1582 192.675 50.0829 190.042 49.9558 187.136C49.8274 184.23 49.6711 181.6 49.5522 179.697C49.4979 178.79 49.4531 178.033 49.4177 177.442C49.3897 176.909 49.3844 176.613 49.4054 176.612C49.4263 176.61 49.4724 176.902 49.537 177.432C49.6024 177.962 49.6822 178.73 49.769 179.681C49.9434 181.582 50.1343 184.212 50.2631 187.123C50.3906 190.033 50.4313 192.67 50.4243 194.579C50.421 195.533 50.4091 196.306 50.3906 196.84C50.3725 197.373 50.3527 197.668 50.3313 197.668Z" fill="#263238"/>
<path d="M40.9014 186.552C40.8944 186.637 40.3711 186.663 39.7331 186.611C39.0947 186.558 38.5829 186.447 38.5899 186.363C38.5969 186.278 39.1198 186.252 39.7582 186.304C40.3962 186.356 40.9084 186.468 40.9014 186.552Z" fill="#263238"/>
<path d="M41.0787 183.305C41.0441 183.382 40.5929 183.257 40.0709 183.026C39.5488 182.794 39.1531 182.544 39.1876 182.466C39.2218 182.388 39.6731 182.513 40.1955 182.745C40.7179 182.976 41.1133 183.227 41.0787 183.305Z" fill="#263238"/>
<path d="M42.7534 180.893C42.7094 180.963 42.2022 180.724 41.6752 180.287C41.1466 179.851 40.8171 179.397 40.8784 179.341C40.9413 179.281 41.3597 179.628 41.8714 180.05C42.3811 180.474 42.7999 180.819 42.7534 180.893Z" fill="#263238"/>
<path d="M44.4322 178.618C44.3544 178.652 44.1113 178.273 43.8892 177.77C43.667 177.267 43.5498 176.832 43.6275 176.797C43.7053 176.763 43.948 177.143 44.1705 177.646C44.3927 178.148 44.5099 178.584 44.4322 178.618Z" fill="#263238"/>
<path d="M47.0646 177.004C46.9889 177.04 46.7272 176.635 46.5536 176.075C46.3784 175.514 46.3648 175.033 46.4471 175.019C46.5322 175.005 46.6783 175.445 46.8474 175.984C47.0135 176.523 47.1431 176.968 47.0646 177.004Z" fill="#263238"/>
<path d="M51.4663 175.184C51.5466 175.213 51.4976 175.558 51.3573 175.956C51.2171 176.354 51.0385 176.653 50.9583 176.625C50.8785 176.596 50.927 176.251 51.0677 175.853C51.2076 175.456 51.3861 175.156 51.4663 175.184Z" fill="#263238"/>
<path d="M54.7356 176.584C54.7932 176.646 54.5838 176.934 54.2678 177.226C53.9519 177.519 53.6492 177.705 53.5916 177.643C53.534 177.581 53.7434 177.293 54.0593 177.001C54.3748 176.709 54.6776 176.522 54.7356 176.584Z" fill="#263238"/>
<path d="M57.6114 178.441C57.6591 178.511 57.4036 178.767 57.0412 179.013C56.6788 179.258 56.346 179.401 56.2987 179.33C56.251 179.26 56.5064 179.004 56.8689 178.758C57.2313 178.513 57.5641 178.37 57.6114 178.441Z" fill="#263238"/>
<path d="M59.6447 181.208C59.6781 181.287 59.2757 181.533 58.7459 181.759C58.2161 181.985 57.7599 182.104 57.7265 182.027C57.6932 181.949 58.0955 181.702 58.6254 181.476C59.1552 181.25 59.6114 181.13 59.6447 181.208Z" fill="#263238"/>
<path d="M60.4525 184.225C60.4628 184.31 60.0535 184.43 59.5384 184.493C59.023 184.557 58.5968 184.541 58.5861 184.456C58.5758 184.372 58.9852 184.252 59.5006 184.188C60.0156 184.124 60.4418 184.141 60.4525 184.225Z" fill="#263238"/>
<path d="M60.8668 187.939C60.8331 188.017 60.3966 187.903 59.8927 187.684C59.3884 187.464 59.007 187.224 59.0412 187.145C59.0749 187.068 59.511 187.182 60.0153 187.401C60.5196 187.621 60.901 187.862 60.8668 187.939Z" fill="#263238"/>
<path d="M60.4959 191.127C60.4691 191.205 59.9175 191.074 59.3412 190.695C58.7628 190.319 58.4214 189.867 58.4814 189.811C58.5439 189.749 58.9627 190.083 59.509 190.438C60.0528 190.796 60.5271 191.046 60.4959 191.127Z" fill="#263238"/>
<path d="M58.8413 194.028C58.7908 194.094 58.3518 193.836 57.9306 193.381C57.5077 192.927 57.2831 192.47 57.3522 192.424C57.4238 192.376 57.7508 192.737 58.1556 193.171C58.5583 193.607 58.8948 193.96 58.8413 194.028Z" fill="#263238"/>
<path d="M43.0805 194.37C43.1196 194.445 42.6588 194.762 42.0508 195.079C41.4428 195.396 40.9183 195.591 40.8793 195.516C40.8402 195.44 41.3009 195.123 41.9089 194.807C42.5165 194.49 43.041 194.294 43.0805 194.37Z" fill="#263238"/>
<path d="M41.6439 191.745C41.6789 191.822 41.3091 192.065 40.8183 192.288C40.3271 192.51 39.9009 192.629 39.8656 192.551C39.8306 192.474 40.2 192.231 40.6912 192.008C41.1824 191.785 41.6085 191.668 41.6439 191.745Z" fill="#263238"/>
<path d="M40.5853 189.42C40.5973 189.504 40.1423 189.638 39.5693 189.72C38.9958 189.801 38.5215 189.799 38.51 189.715C38.4981 189.631 38.953 189.497 39.5261 189.415C40.0991 189.334 40.5734 189.336 40.5853 189.42Z" fill="#263238"/>
<path d="M44.057 188.14C44.0821 188.219 43.6382 188.426 43.0463 188.492C42.4543 188.56 41.9755 188.457 41.9825 188.374C41.9883 188.287 42.4515 188.251 43.0117 188.186C43.5724 188.124 44.0323 188.057 44.057 188.14Z" fill="#263238"/>
<path d="M46.9406 185.27C46.9656 185.35 46.6123 185.528 46.1359 185.574C45.6596 185.622 45.2782 185.516 45.2873 185.433C45.2955 185.347 45.6628 185.313 46.1055 185.268C46.5485 185.226 46.9159 185.188 46.9406 185.27Z" fill="#263238"/>
<path d="M47.4881 182.972C47.4606 183.052 47.078 182.993 46.6342 182.839C46.1903 182.686 45.8526 182.496 45.8805 182.416C45.9081 182.336 46.2907 182.395 46.7345 182.549C47.1784 182.702 47.5161 182.892 47.4881 182.972Z" fill="#263238"/>
<path d="M48.5476 180.648C48.4887 180.707 48.2259 180.534 48.0387 180.208C47.8503 179.883 47.8318 179.569 47.9124 179.547C47.9955 179.523 48.137 179.766 48.3049 180.054C48.4702 180.344 48.6097 180.589 48.5476 180.648Z" fill="#263238"/>
<path d="M47.2713 190.163C47.2915 190.246 46.9603 190.397 46.5317 190.502C46.284 190.562 46.0582 190.594 45.9101 190.593L45.8496 190.414C45.9607 190.394 46.0323 190.399 46.0467 190.431C46.0611 190.464 46.0158 190.52 45.9261 190.588L45.8657 190.408C45.9969 190.34 46.2116 190.264 46.4593 190.203C46.8875 190.099 47.2511 190.081 47.2713 190.163Z" fill="#263238"/>
<path d="M47.8633 194.236C47.8941 194.315 47.4721 194.555 46.9204 194.772C46.3684 194.988 45.8961 195.1 45.8649 195.021C45.834 194.942 46.2561 194.703 46.8077 194.486C47.3598 194.269 47.8324 194.158 47.8633 194.236Z" fill="#263238"/>
<path d="M44.6089 192.428C44.6365 192.508 44.3547 192.677 43.9799 192.804C43.6052 192.932 43.2794 192.97 43.2518 192.889C43.2247 192.809 43.506 192.64 43.8808 192.513C44.2555 192.386 44.5813 192.347 44.6089 192.428Z" fill="#263238"/>
<path d="M44.8586 184.134C44.8393 184.215 44.349 184.167 43.7825 183.965C43.2156 183.765 42.8043 183.494 42.8401 183.419C42.8767 183.341 43.3345 183.481 43.8849 183.675C44.4349 183.871 44.8792 184.05 44.8586 184.134Z" fill="#263238"/>
<path d="M52.7396 183.234C52.7865 183.304 52.51 183.569 52.1229 183.824C51.7354 184.08 51.3837 184.229 51.3372 184.158C51.2903 184.088 51.5664 183.823 51.9539 183.568C52.341 183.312 52.6927 183.162 52.7396 183.234Z" fill="#263238"/>
<path d="M53.1657 187.324C53.183 187.407 52.893 187.538 52.5178 187.616C52.1426 187.694 51.8247 187.69 51.8074 187.606C51.7901 187.523 52.0801 187.393 52.4553 187.315C52.8304 187.237 53.1484 187.242 53.1657 187.324Z" fill="#263238"/>
<path d="M53.6631 191.924C53.6273 192.001 53.2097 191.884 52.7301 191.662C52.2504 191.44 51.8905 191.198 51.9263 191.12C51.9621 191.043 52.3796 191.161 52.8593 191.383C53.3389 191.605 53.6989 191.848 53.6631 191.924Z" fill="#263238"/>
<path d="M52.6116 196.404C52.5458 196.458 52.2747 196.236 52.0057 195.909C51.7367 195.581 51.5717 195.272 51.6375 195.218C51.7029 195.164 51.9744 195.386 52.2435 195.713C52.5121 196.041 52.677 196.35 52.6116 196.404Z" fill="#263238"/>
<path d="M52.396 180.221C52.4478 180.287 52.2689 180.512 51.9616 180.666C51.6547 180.821 51.3668 180.83 51.3454 180.749C51.3223 180.666 51.5469 180.532 51.8238 180.392C52.1015 180.253 52.3434 180.153 52.396 180.221Z" fill="#263238"/>
<path d="M56.2591 184.346C56.2871 184.424 55.93 184.621 55.4409 184.688C54.9522 184.757 54.5548 184.665 54.5606 184.582C54.5651 184.496 54.9432 184.448 55.3986 184.383C55.8544 184.321 56.2312 184.264 56.2591 184.346Z" fill="#263238"/>
<path d="M55.4929 180.642C55.5308 180.716 55.1758 180.969 54.6714 181.13C54.1671 181.292 53.7315 181.292 53.7191 181.209C53.7051 181.124 54.0988 180.992 54.578 180.837C55.0573 180.685 55.4547 180.564 55.4929 180.642Z" fill="#263238"/>
<path d="M57.1025 190.085C57.1013 190.168 56.4945 190.221 55.7627 190.087C55.03 189.956 54.4809 189.692 54.5088 189.615C54.5368 189.532 55.1107 189.658 55.8174 189.785C56.5233 189.915 57.1054 189.998 57.1025 190.085Z" fill="#263238"/>
<path d="M55.664 195.465C55.613 195.531 55.1662 195.268 54.7203 194.82C54.2731 194.372 54.0123 193.924 54.0786 193.873C54.1469 193.82 54.506 194.17 54.9383 194.603C55.369 195.037 55.7175 195.398 55.664 195.465Z" fill="#263238"/>
<path d="M49.3558 176.263C49.4015 176.329 48.1304 176.845 46.6614 178.393C45.1932 179.906 43.6786 182.58 43.3055 185.81C43.1269 187.416 43.28 188.969 43.5078 190.356C43.7477 191.744 44.0657 192.976 44.359 194.003C44.6539 195.03 44.9246 195.853 45.1064 196.423C45.2887 196.993 45.3861 197.31 45.3652 197.318C45.3462 197.325 45.2109 197.022 44.9937 196.463C44.7769 195.904 44.4737 195.09 44.1508 194.066C43.8291 193.041 43.4865 191.806 43.2285 190.404C42.9829 189.004 42.8163 187.426 42.9998 185.775C43.3807 182.47 44.9661 179.747 46.5047 178.242C47.2702 177.477 47.9897 176.966 48.5146 176.671C48.7692 176.51 48.9893 176.424 49.1296 176.351C49.274 176.284 49.3513 176.254 49.3558 176.263Z" fill="#263238"/>
<path d="M53.5469 197.514C53.4803 197.481 54.2376 196.315 54.9283 194.214C55.6396 192.138 56.2278 189.065 55.7539 185.726C55.5322 184.062 55.0509 182.519 54.4454 181.201C53.8168 179.901 53.0064 178.836 52.2137 178.093C51.3938 177.368 50.5888 176.952 50.0273 176.711C49.4588 176.474 49.1186 176.418 49.1231 176.392C49.1247 176.383 49.2111 176.388 49.3744 176.412C49.5361 176.441 49.7747 176.495 50.0705 176.599C50.6575 176.812 51.4917 177.203 52.3573 177.929C53.2001 178.682 54.0369 179.744 54.7012 181.079C55.3347 182.42 55.8325 183.988 56.0587 185.684C56.5413 189.084 55.9057 192.205 55.134 194.285C54.9604 194.816 54.737 195.271 54.5704 195.681C54.3725 196.077 54.2092 196.422 54.0591 196.694C53.746 197.233 53.5654 197.524 53.5469 197.514Z" fill="#263238"/>
<path d="M41.6426 196.788H58.5835L58.6876 200.179H41.6426V196.788Z" fill="#3C3C3C"/>
<path d="M43.0801 198.483L44.053 208.834H56.438L57.4327 198.597L43.0801 198.483Z" fill="#3C3C3C"/>
<path d="M58.683 200.22C58.683 200.305 54.868 200.374 50.1632 200.374C45.4568 200.374 41.6426 200.305 41.6426 200.22C41.6426 200.135 45.4568 200.066 50.1632 200.066C54.868 200.066 58.683 200.135 58.683 200.22Z" fill="#263238"/>
<path d="M56.9651 203.373C56.9815 203.383 56.8672 203.621 56.6022 204.02C56.3365 204.417 55.9136 204.974 55.2883 205.571L55.2106 205.646L55.1337 205.565C54.3179 204.709 53.1974 203.66 51.8135 202.659L52.0007 202.651C51.5276 203.066 51.0348 203.498 50.5288 203.942C49.9274 204.466 49.3445 204.974 48.7887 205.457L48.6925 205.541L48.5958 205.46C47.5411 204.573 46.5814 203.767 45.7673 203.082L45.9318 203.064C45.3477 203.777 44.8569 204.376 44.4686 204.85C44.1164 205.268 43.9124 205.493 43.8939 205.479C43.8758 205.465 44.0453 205.213 44.3666 204.771C44.7335 204.28 45.1971 203.66 45.7496 202.922L45.8199 202.828L45.9141 202.904C46.7406 203.574 47.7143 204.363 48.785 205.231L48.5925 205.234C49.1462 204.748 49.7267 204.238 50.326 203.712C50.8337 203.27 51.3281 202.839 51.8024 202.425L51.8933 202.346L51.99 202.417C53.3845 203.442 54.5002 204.526 55.2941 205.417L55.1394 205.411C56.3962 204.27 56.9165 203.336 56.9651 203.373Z" fill="#263238"/>
<path d="M260.513 205.995H81.1896C77.8802 205.995 75.1973 203.313 75.1973 200.003V85.4777C75.1973 82.1683 77.8802 79.4854 81.1896 79.4854H260.513C263.823 79.4854 266.505 82.1683 266.505 85.4777V200.003C266.505 203.313 263.823 205.995 260.513 205.995Z" fill="#455A64"/>
<path d="M268.89 208.895H76.2649C72.2215 208.895 68.9434 205.617 68.9434 201.573V197.825H276.211V201.573C276.212 205.616 272.934 208.895 268.89 208.895Z" fill="#455A64"/>
<path d="M151.998 196.637L154.57 200.729H190.762L193.15 196.637H151.998Z" fill="#263238"/>
<path d="M264.862 196.636C264.862 196.705 222.4 196.76 170.034 196.76C117.65 196.76 75.1973 196.704 75.1973 196.636C75.1973 196.568 117.65 196.512 170.034 196.512C222.4 196.512 264.862 196.568 264.862 196.636Z" fill="#263238"/>
<path d="M258.94 193.295H82.03C81.2862 193.295 80.6836 192.693 80.6836 191.949V88.1081C80.6836 87.3644 81.2862 86.7617 82.03 86.7617H258.94C259.684 86.7617 260.287 87.3644 260.287 88.1077V191.949C260.287 192.693 259.684 193.295 258.94 193.295Z" fill="#EBEBEB"/>
<path d="M260.097 193.449H80.4941L80.6862 94.7207H260.097V193.449Z" fill="white"/>
<path d="M95.4251 90.8749C95.4251 91.6672 94.783 92.3094 93.9907 92.3094C93.1984 92.3094 92.5566 91.6672 92.5566 90.8749C92.5566 90.0827 93.1988 89.4409 93.9907 89.4409C94.7825 89.4409 95.4251 90.0827 95.4251 90.8749Z" fill="#263238"/>
<path d="M86.7165 90.8749C86.7165 91.6672 86.0744 92.3094 85.2821 92.3094C84.4902 92.3094 83.8477 91.6672 83.8477 90.8749C83.8477 90.0827 84.4902 89.4409 85.2821 89.4409C86.0744 89.4409 86.7165 90.0827 86.7165 90.8749Z" fill="#263238"/>
<path d="M90.8962 90.8754C90.8962 91.6677 90.2541 92.3099 89.4618 92.3099C88.6695 92.3099 88.0273 91.6677 88.0273 90.8754C88.0273 90.0831 88.6695 89.4414 89.4618 89.4414C90.2541 89.4414 90.8962 90.0831 90.8962 90.8754Z" fill="#263238"/>
<path d="M260.278 183.914H80.4824V193.448H260.278V183.914Z" fill="#263238"/>
<path d="M87.2818 189.785V190.091H85.8503V189.849L86.622 189.116C86.8104 188.936 86.8437 188.822 86.8437 188.715C86.8437 188.537 86.7215 188.434 86.4829 188.434C86.2945 188.434 86.1362 188.498 86.028 188.636L85.7754 188.442C85.9251 188.24 86.1946 188.12 86.5134 188.12C86.935 188.12 87.207 188.334 87.207 188.678C87.207 188.866 87.1543 189.039 86.8848 189.291L86.3661 189.785H87.2818Z" fill="white"/>
<path d="M87.4785 188.822C87.4785 188.684 87.5809 188.592 87.706 188.592C87.8306 188.592 87.9335 188.684 87.9335 188.822C87.9335 188.955 87.8306 189.052 87.706 189.052C87.5809 189.052 87.4785 188.955 87.4785 188.822ZM87.4785 189.879C87.4785 189.74 87.5809 189.649 87.706 189.649C87.8306 189.649 87.9335 189.74 87.9335 189.879C87.9335 190.012 87.8306 190.109 87.706 190.109C87.5809 190.11 87.4785 190.013 87.4785 189.879Z" fill="white"/>
<path d="M88.8358 188.148V190.091H88.4754V188.451H88.0645V188.148H88.8358Z" fill="white"/>
<path d="M90.9528 189.65H90.6085V190.091H90.2588V189.65H89.1934V189.4L90.1506 188.148H90.5365L89.6343 189.345H90.2699V188.953H90.6085V189.345H90.9528V189.65Z" fill="white"/>
<path d="M241.492 188.873H94.125V189.544H241.492V188.873Z" fill="white"/>
<path d="M140.066 188.149H94.0137V189.941H140.066V188.149Z" fill="#3C3C3C"/>
<path d="M141.553 189.209C141.553 190.447 140.549 191.451 139.311 191.451C138.073 191.451 137.068 190.447 137.068 189.209C137.068 187.971 138.072 186.967 139.311 186.967C140.549 186.967 141.553 187.971 141.553 189.209Z" fill="#3C3C3C"/>
<path d="M245.202 189.188C245.202 189.574 244.888 189.818 244.491 189.818C243.961 189.818 243.65 189.477 243.65 188.852C243.65 188.186 244.039 187.82 244.602 187.82C244.796 187.82 244.982 187.861 245.113 187.944L244.98 188.216C244.875 188.147 244.747 188.122 244.611 188.122C244.245 188.122 244.014 188.35 244.014 188.791V188.794C244.131 188.658 244.317 188.592 244.533 188.592C244.916 188.592 245.202 188.824 245.202 189.188ZM244.852 189.204C244.852 189.002 244.699 188.875 244.464 188.875C244.23 188.875 244.07 189.016 244.07 189.207C244.07 189.39 244.214 189.534 244.472 189.534C244.697 189.534 244.852 189.407 244.852 189.204Z" fill="white"/>
<path d="M245.377 188.522C245.377 188.383 245.479 188.292 245.604 188.292C245.729 188.292 245.832 188.383 245.832 188.522C245.832 188.655 245.729 188.752 245.604 188.752C245.479 188.752 245.377 188.655 245.377 188.522ZM245.377 189.579C245.377 189.44 245.479 189.349 245.604 189.349C245.729 189.349 245.832 189.44 245.832 189.579C245.832 189.712 245.729 189.809 245.604 189.809C245.479 189.809 245.377 189.712 245.377 189.579Z" fill="white"/>
<path d="M246.062 188.819C246.062 188.181 246.412 187.82 246.872 187.82C247.336 187.82 247.686 188.181 247.686 188.819C247.686 189.457 247.336 189.818 246.872 189.818C246.412 189.818 246.062 189.457 246.062 188.819ZM247.323 188.819C247.323 188.35 247.14 188.134 246.873 188.134C246.61 188.134 246.426 188.35 246.426 188.819C246.426 189.288 246.61 189.504 246.873 189.504C247.139 189.504 247.323 189.288 247.323 188.819Z" fill="white"/>
<path d="M247.928 188.819C247.928 188.181 248.277 187.82 248.738 187.82C249.201 187.82 249.551 188.181 249.551 188.819C249.551 189.457 249.202 189.818 248.738 189.818C248.277 189.818 247.928 189.457 247.928 188.819ZM249.188 188.819C249.188 188.35 249.005 188.134 248.738 188.134C248.475 188.134 248.291 188.35 248.291 188.819C248.291 189.288 248.474 189.504 248.738 189.504C249.005 189.504 249.188 189.288 249.188 188.819Z" fill="white"/>
<path d="M252.69 188.697H252.018V186.761H253.951V187.433H252.69V188.697Z" fill="white"/>
<path d="M253.955 191.225H252.018V189.292H252.689V190.554H253.955V191.225Z" fill="white"/>
<path d="M257.037 191.225H255.104V190.553H256.365V189.288H257.037V191.225Z" fill="white"/>
<path d="M257.041 188.694H256.368V187.433H255.104V186.761H257.041V188.694Z" fill="white"/>
<path d="M105.114 100.59H94.5274L89.2344 109.758L94.5274 118.926H105.114L110.407 109.758L105.114 100.59Z" fill="#EBEBEB"/>
<path d="M95.3958 111.553C94.9228 111.029 94.4456 110.499 94.1009 109.884C93.7561 109.268 93.5504 108.55 93.6644 107.853C93.731 107.446 93.9042 107.058 93.9318 106.646C93.9696 106.08 93.7314 105.488 93.9322 104.957C94.2461 104.127 95.3633 103.999 96.0409 103.425C96.5682 102.979 96.8253 102.254 97.4058 101.878C97.9126 101.55 98.5642 101.557 99.1619 101.641C99.76 101.726 100.361 101.877 100.96 101.797C101.387 101.739 101.788 101.567 102.206 101.463C102.624 101.36 103.09 101.333 103.463 101.549C103.835 101.765 104.044 102.293 103.8 102.648C104.493 102.328 105.374 102.869 105.564 103.609C105.754 104.348 105.374 105.148 104.786 105.635C104.199 106.123 103.438 106.35 102.688 106.491C100.563 106.892 98.2589 106.666 96.428 105.516" fill="#263238"/>
<path d="M105.2 113.816C105.128 112.504 104.761 109.814 104.4 107.383C104.012 104.768 101.682 102.889 99.0451 103.066L98.7831 103.083C95.9689 103.438 94.6974 106.025 95.1293 108.829L95.9554 118.927H102.823C102.823 118.927 102.661 117.155 102.66 117.138C102.66 117.138 105.348 116.533 105.2 113.816Z" fill="#FFBE9D"/>
<path d="M102.654 117.101C102.654 117.101 100.947 117.355 99.0469 116.332C99.0469 116.332 100.014 118.23 102.708 117.804L102.654 117.101Z" fill="#EB996E"/>
<path d="M103.523 109.713C103.544 109.917 103.388 110.103 103.175 110.129C102.963 110.154 102.773 110.01 102.752 109.806C102.731 109.602 102.886 109.415 103.099 109.39C103.312 109.364 103.502 109.509 103.523 109.713Z" fill="#263238"/>
<path d="M103.919 108.745C103.874 108.799 103.566 108.601 103.149 108.63C102.732 108.653 102.44 108.888 102.391 108.84C102.367 108.819 102.41 108.725 102.537 108.619C102.662 108.513 102.879 108.404 103.14 108.388C103.4 108.372 103.625 108.453 103.757 108.542C103.892 108.632 103.942 108.721 103.919 108.745Z" fill="#263238"/>
<path d="M99.6048 109.992C99.6258 110.197 99.4699 110.383 99.2572 110.409C99.0445 110.435 98.8549 110.29 98.8339 110.086C98.8129 109.881 98.9688 109.695 99.1811 109.67C99.3942 109.644 99.5838 109.788 99.6048 109.992Z" fill="#263238"/>
<path d="M99.81 109.102C99.7651 109.156 99.4566 108.958 99.0395 108.987C98.6223 109.01 98.3303 109.245 98.2817 109.197C98.2579 109.176 98.3002 109.082 98.4278 108.975C98.5524 108.87 98.77 108.761 99.03 108.745C99.29 108.729 99.515 108.81 99.6475 108.899C99.7824 108.989 99.8322 109.078 99.81 109.102Z" fill="#263238"/>
<path d="M101.53 112.091C101.527 112.068 101.783 112.005 102.2 111.924C102.306 111.905 102.405 111.877 102.419 111.803C102.438 111.725 102.386 111.613 102.326 111.492C102.209 111.241 102.086 110.978 101.957 110.702C101.442 109.576 101.062 108.647 101.107 108.627C101.153 108.607 101.607 109.503 102.122 110.629C102.247 110.907 102.365 111.172 102.479 111.425C102.527 111.543 102.606 111.676 102.562 111.84C102.538 111.921 102.464 111.984 102.397 112.007C102.33 112.033 102.27 112.038 102.217 112.045C101.796 112.096 101.534 112.115 101.53 112.091Z" fill="#263238"/>
<path d="M99.8142 107.457C99.7805 107.573 99.3604 107.548 98.8746 107.64C98.3872 107.722 98.0017 107.891 97.9301 107.794C97.898 107.747 97.9597 107.636 98.1119 107.515C98.2629 107.395 98.5085 107.274 98.8002 107.222C99.0918 107.17 99.3641 107.199 99.5472 107.259C99.7315 107.319 99.8282 107.402 99.8142 107.457Z" fill="#263238"/>
<path d="M103.672 107.555C103.605 107.655 103.311 107.576 102.965 107.594C102.619 107.6 102.331 107.701 102.257 107.606C102.224 107.56 102.264 107.462 102.386 107.364C102.506 107.266 102.712 107.179 102.95 107.17C103.188 107.162 103.4 107.234 103.526 107.323C103.655 107.412 103.701 107.507 103.672 107.555Z" fill="#263238"/>
<path d="M95.4858 110.825C95.4381 110.809 93.5832 110.398 93.7667 112.251C93.9501 114.103 95.9576 113.499 95.9555 113.446C95.9535 113.393 95.4858 110.825 95.4858 110.825Z" fill="#FFBE9D"/>
<path d="M95.139 112.844C95.1303 112.839 95.1089 112.87 95.0567 112.9C95.0061 112.93 94.916 112.956 94.816 112.929C94.6132 112.876 94.4174 112.582 94.3755 112.249C94.3541 112.081 94.3734 111.917 94.4199 111.778C94.4631 111.637 94.5412 111.534 94.6383 111.506C94.7342 111.474 94.8094 111.526 94.8374 111.576C94.8675 111.625 94.8592 111.663 94.8695 111.665C94.8753 111.67 94.9061 111.63 94.8839 111.556C94.8728 111.52 94.8465 111.478 94.7996 111.447C94.7514 111.415 94.6844 111.403 94.6165 111.417C94.4746 111.441 94.359 111.585 94.308 111.737C94.2492 111.891 94.2232 112.076 94.2471 112.265C94.2961 112.637 94.5215 112.967 94.7971 113.018C94.9308 113.039 95.0357 112.989 95.0875 112.94C95.1398 112.889 95.1455 112.847 95.139 112.844Z" fill="#EB996E"/>
<path d="M104.268 104.847C104.141 105.584 102.646 106.26 101.406 106.224C100.262 106.19 99.6976 105.623 98.8671 105.22C98.3414 104.965 98.3414 104.965 97.6281 105.081C97.0513 105.175 96.7519 105.855 96.4281 106.342C97.0452 107.686 96.7959 109.25 96.5342 110.707C96.5054 110.868 96.4697 111.042 96.3467 111.15C96.1385 111.333 95.8008 111.223 95.5959 111.036C95.2681 110.735 95.1187 110.29 95.0114 109.859C94.7666 108.876 94.6724 107.847 94.8279 106.846C94.9834 105.845 95.3972 104.873 96.0813 104.126C96.9357 103.193 98.1851 102.655 99.4488 102.59C100.713 102.525 101.982 102.916 103.041 103.609C103.532 103.931 103.991 104.329 104.268 104.847Z" fill="#263238"/>
<path d="M101.812 113.032C101.497 112.885 101.182 112.738 100.868 112.592C100.813 112.566 100.755 112.54 100.696 112.548C100.629 112.557 100.575 112.607 100.532 112.659C100.313 112.925 100.258 113.325 100.428 113.625C100.597 113.924 100.996 114.082 101.314 113.95C101.648 113.812 101.811 113.423 101.837 113.062L101.812 113.032Z" fill="#EB996E"/>
<path d="M101.343 114.017C101.358 114.035 101.146 114.169 100.789 114.067C100.617 114.015 100.421 113.883 100.3 113.669C100.176 113.461 100.131 113.162 100.238 112.895C100.289 112.762 100.369 112.644 100.466 112.552C100.516 112.505 100.566 112.467 100.627 112.431C100.687 112.387 100.815 112.38 100.876 112.417C101.092 112.537 101.237 112.639 101.382 112.732C101.659 112.916 101.822 113.042 101.807 113.067C101.792 113.093 101.601 113.013 101.305 112.863C101.133 112.773 100.966 112.686 100.801 112.6C100.762 112.589 100.766 112.589 100.728 112.609C100.691 112.633 100.648 112.666 100.612 112.703C100.538 112.776 100.477 112.868 100.437 112.971C100.355 113.178 100.383 113.401 100.473 113.574C100.561 113.748 100.704 113.863 100.842 113.924C101.126 114.046 101.337 113.983 101.343 114.017Z" fill="#263238"/>
<path d="M101.047 109.758C101.026 109.759 101.029 109.586 100.946 109.296C100.865 109.011 100.667 108.597 100.237 108.281C99.8216 107.963 99.1425 107.788 98.4871 108.034C97.8372 108.26 97.2777 108.951 97.2851 109.758C97.2777 110.564 97.8376 111.256 98.4871 111.482C99.1425 111.728 99.822 111.553 100.237 111.235C100.667 110.919 100.864 110.504 100.946 110.22C101.029 109.93 101.026 109.757 101.047 109.758C101.054 109.758 101.059 109.801 101.062 109.883C101.067 109.965 101.059 110.087 101.027 110.241C100.967 110.543 100.781 110.997 100.329 111.356C99.8924 111.715 99.1503 111.93 98.4197 111.668C97.6957 111.43 97.0618 110.66 97.0704 109.758C97.0622 108.856 97.6957 108.087 98.4197 107.849C99.1503 107.587 99.8924 107.801 100.329 108.16C100.781 108.519 100.967 108.973 101.027 109.276C101.059 109.429 101.067 109.552 101.062 109.634C101.059 109.715 101.054 109.758 101.047 109.758Z" fill="#263238"/>
<path d="M105.662 109.576C105.642 109.577 105.644 109.408 105.563 109.126C105.483 108.849 105.29 108.446 104.872 108.138C104.467 107.829 103.806 107.659 103.169 107.899C102.536 108.119 101.992 108.791 101.999 109.576C101.992 110.361 102.536 111.034 103.169 111.254C103.806 111.494 104.468 111.324 104.872 111.014C105.291 110.706 105.483 110.303 105.563 110.026C105.644 109.744 105.642 109.575 105.662 109.576C105.67 109.576 105.675 109.618 105.678 109.698C105.683 109.777 105.675 109.897 105.644 110.047C105.586 110.342 105.405 110.784 104.964 111.135C104.539 111.485 103.815 111.695 103.102 111.439C102.395 111.207 101.777 110.456 101.785 109.576C101.777 108.696 102.395 107.945 103.102 107.713C103.815 107.457 104.539 107.667 104.964 108.017C105.405 108.367 105.586 108.81 105.644 109.105C105.675 109.255 105.683 109.374 105.678 109.454C105.675 109.535 105.67 109.576 105.662 109.576Z" fill="#263238"/>
<path d="M101.896 109.149C101.854 109.189 101.67 109.07 101.423 109.078C101.176 109.078 100.998 109.204 100.954 109.167C100.898 109.137 101.07 108.87 101.42 108.864C101.768 108.859 101.951 109.117 101.896 109.149Z" fill="#263238"/>
<path d="M97.296 109.484C97.3314 109.531 96.9723 109.859 96.4935 110.216C96.015 110.574 95.5983 110.825 95.563 110.777C95.5276 110.73 95.8867 110.402 96.3655 110.045C96.8439 109.688 97.2607 109.436 97.296 109.484Z" fill="#263238"/>
<path d="M135.476 109.664C135.476 109.723 130.717 109.771 124.848 109.771C118.977 109.771 114.219 109.723 114.219 109.664C114.219 109.605 118.977 109.557 124.848 109.557C130.717 109.557 135.476 109.605 135.476 109.664Z" fill="#263238"/>
<path d="M125.643 111.889C125.643 111.948 123.116 111.996 119.999 111.996C116.882 111.996 114.355 111.948 114.355 111.889C114.355 111.83 116.882 111.782 119.999 111.782C123.116 111.782 125.643 111.829 125.643 111.889Z" fill="#263238"/>
<path d="M199.156 126.101C199.156 126.101 204.806 128.853 206.79 135.961C208.774 143.069 214.85 161.581 214.85 161.581C214.85 161.581 218.323 165.665 218.694 168.691C219.066 171.716 218.323 179.032 217.207 180.396C216.091 181.761 214.499 181.535 214.499 181.535L199.884 180.148L194.129 141.613L199.156 126.101Z" fill="#3C3C3C"/>
<path d="M150.826 125.427C150.826 125.427 140.376 128.705 137.771 131.557L146.328 171.364L146.192 183.924H195.736C195.736 183.304 196.18 142.222 196.18 142.222L199.156 126.101L181.547 123.001L178.075 120.273L158.481 121.265L155.505 124.241L150.826 125.427Z" fill="#3C3C3C"/>
<g opacity="0.3">
<path d="M154.795 159.962C154.642 159.624 154.424 159.259 154.061 159.184C153.464 159.061 153.065 159.766 152.862 160.341C151.253 164.898 149.124 169.089 146.354 173.049L146.227 179.161C149.115 176.73 151.963 174.127 153.804 170.831C155.645 167.536 156.349 163.401 154.795 159.962Z" fill="black"/>
</g>
<path d="M137.772 131.557C137.772 131.557 134.328 136.251 132.898 139.315C131.469 142.378 119.621 168.116 118.906 170.772C118.191 173.427 116.353 181.802 121.766 183.743H132.898L144.072 161.148L144.644 134.923L137.772 131.557Z" fill="#3C3C3C"/>
<path d="M133.611 167.421C133.596 167.438 133.363 167.202 132.85 166.911C132.338 166.622 131.543 166.289 130.513 166.065C129.999 165.952 129.427 165.864 128.81 165.825C128.193 165.786 127.53 165.798 126.858 165.952C125.507 166.253 124.165 167.106 123.11 168.305C122.038 169.502 121.377 170.916 120.988 172.25C120.593 173.587 120.425 174.841 120.318 175.892C120.214 176.945 120.175 177.802 120.139 178.394C120.121 178.671 120.107 178.897 120.096 179.076C120.084 179.232 120.074 179.314 120.067 179.313C120.059 179.313 120.055 179.231 120.053 179.075C120.054 178.895 120.054 178.669 120.056 178.392C120.067 177.798 120.082 176.939 120.168 175.879C120.255 174.82 120.409 173.554 120.799 172.195C121.182 170.841 121.853 169.387 122.95 168.163C124.029 166.936 125.415 166.06 126.815 165.76C127.513 165.605 128.198 165.601 128.822 165.648C129.45 165.695 130.028 165.793 130.548 165.917C131.587 166.164 132.386 166.523 132.893 166.839C133.146 166.999 133.329 167.143 133.445 167.248C133.559 167.357 133.615 167.416 133.611 167.421Z" fill="#263238"/>
<path d="M128.332 162.922C128.331 162.907 128.464 162.887 128.706 162.862C128.949 162.832 129.303 162.825 129.739 162.848C130.176 162.867 130.693 162.942 131.257 163.072C131.818 163.213 132.425 163.416 133.03 163.701C133.633 163.993 134.172 164.336 134.635 164.683C135.092 165.04 135.475 165.395 135.765 165.722C136.057 166.047 136.274 166.327 136.404 166.534C136.537 166.738 136.605 166.854 136.593 166.862C136.56 166.885 136.258 166.439 135.655 165.827C135.357 165.518 134.97 165.182 134.517 164.841C134.057 164.51 133.527 164.179 132.938 163.894C132.346 163.616 131.755 163.412 131.209 163.264C130.659 163.126 130.154 163.037 129.727 162.999C128.871 162.916 128.335 162.962 128.332 162.922Z" fill="#263238"/>
<path d="M138.396 161.684C138.394 161.698 138.21 161.684 137.881 161.645C137.553 161.603 137.076 161.555 136.487 161.511C135.309 161.422 133.671 161.401 131.881 161.612C130.092 161.829 128.505 162.236 127.381 162.6C126.819 162.782 126.367 162.941 126.058 163.06C125.748 163.175 125.572 163.233 125.567 163.219C125.561 163.206 125.724 163.122 126.026 162.982C126.326 162.84 126.773 162.658 127.333 162.457C128.451 162.053 130.048 161.618 131.856 161.4C133.663 161.186 135.318 161.231 136.5 161.36C137.092 161.424 137.568 161.495 137.894 161.563C138.22 161.627 138.399 161.67 138.396 161.684Z" fill="#263238"/>
<path d="M170.108 139.695C170.103 139.698 170.065 139.652 169.994 139.56C169.915 139.454 169.815 139.32 169.691 139.154C169.418 138.776 169.042 138.254 168.571 137.603C167.61 136.247 166.27 134.356 164.694 132.132L164.867 132.108C164.267 133.87 163.605 135.813 162.908 137.858L162.864 137.988L162.752 137.915C162.679 137.868 162.6 137.818 162.521 137.767C161.6 137.183 160.787 136.481 160.097 135.72C159.41 134.956 158.84 134.14 158.366 133.327C157.42 131.695 156.849 130.085 156.462 128.722C156.077 127.355 155.875 126.223 155.74 125.443C155.675 125.069 155.624 124.771 155.585 124.546C155.566 124.443 155.545 124.368 155.532 124.316C155.513 124.269 155.503 124.242 155.506 124.24C155.552 124.221 155.673 124.652 155.822 125.427C155.982 126.202 156.205 127.326 156.607 128.68C157.01 130.03 157.592 131.621 158.536 133.227C159.008 134.028 159.574 134.828 160.252 135.578C160.933 136.324 161.731 137.012 162.635 137.585C162.713 137.635 162.79 137.685 162.862 137.731L162.705 137.788C163.408 135.745 164.076 133.803 164.681 132.044L164.744 131.86L164.854 132.019C166.404 134.261 167.722 136.167 168.668 137.534C169.118 138.199 169.48 138.731 169.741 139.117C169.855 139.29 169.947 139.43 170.02 139.541C170.082 139.639 170.112 139.692 170.108 139.695Z" fill="#263238"/>
<g opacity="0.3">
<path d="M183.006 158.698C182.547 163.301 183.563 168.038 185.869 172.048C188.175 176.058 191.552 179.631 195.761 181.549C195.897 177.464 195.701 172.651 195.836 168.566L183.006 158.698Z" fill="black"/>
</g>
<path d="M182.54 153.319C182.54 153.319 180.74 153.819 182.09 157.506C183.44 161.192 183.89 160.97 184.789 164.419C185.689 167.868 186.739 171.015 188.313 172.965C189.888 174.914 195.737 178.889 195.737 178.889L200.986 173.94C200.986 173.94 200.121 170.251 200.329 167.747C200.536 165.242 201.061 159.093 200.986 158.043C200.911 156.994 199.786 154.444 199.786 154.444V152.7L197.087 144.396C197.087 144.396 195.587 143.721 195.062 146.121L194.163 143.574C194.163 143.574 192.738 143.346 192.363 146.27C191.988 149.195 192.663 153.244 192.663 153.244L191.913 158.343L190.788 161.792L189.813 161.942C189.813 161.942 188.346 161.542 187.542 158.78C186.739 156.019 184.565 152.719 182.54 153.319Z" fill="#FFBE9D"/>
<path d="M199.228 166.362C199.223 166.363 199.214 166.298 199.204 166.173C199.194 166.03 199.182 165.849 199.166 165.624C199.139 165.12 199.102 164.425 199.055 163.558C198.975 161.768 198.862 159.277 198.731 156.368L198.754 156.428C198.514 156.139 198.083 156.054 197.692 156.151C197.295 156.247 196.939 156.495 196.719 156.864C196.26 157.602 196.236 158.563 196.092 159.491C195.808 161.593 195.536 163.594 195.29 165.418C195.165 166.329 195.033 167.196 194.855 167.998C194.683 168.801 194.44 169.532 194.204 170.185C193.972 170.84 193.767 171.432 193.64 171.966C193.511 172.499 193.46 172.97 193.47 173.354C193.486 174.129 193.711 174.522 193.678 174.53C193.671 174.533 193.628 174.435 193.552 174.243C193.49 174.047 193.403 173.751 193.387 173.358C193.364 172.966 193.404 172.482 193.523 171.939C193.641 171.395 193.838 170.794 194.061 170.135C194.288 169.478 194.518 168.758 194.682 167.96C194.85 167.164 194.975 166.302 195.094 165.391C195.336 163.567 195.601 161.565 195.88 159.462C195.946 158.994 195.997 158.531 196.078 158.069C196.161 157.61 196.289 157.149 196.541 156.751C196.781 156.347 197.2 156.05 197.645 155.95C198.083 155.84 198.608 155.936 198.908 156.298L198.93 156.325L198.931 156.359C199.031 159.269 199.117 161.762 199.178 163.553C199.2 164.42 199.219 165.117 199.232 165.621C199.234 165.846 199.236 166.028 199.238 166.171C199.237 166.297 199.234 166.362 199.228 166.362Z" fill="#EB996E"/>
<path d="M196.357 156.913C196.345 156.918 196.261 156.753 196.136 156.443C196.013 156.133 195.849 155.677 195.697 155.099C195.543 154.522 195.401 153.821 195.32 153.033C195.279 152.64 195.251 152.219 195.297 151.781C195.342 151.347 195.471 150.885 195.75 150.496C195.987 150.158 196.325 149.888 196.709 149.775L196.79 149.752L196.831 149.824C197.591 151.165 198.252 152.349 198.716 153.201C198.929 153.599 199.108 153.935 199.254 154.207C199.376 154.445 199.438 154.579 199.426 154.585C199.415 154.592 199.331 154.471 199.189 154.244C199.028 153.981 198.831 153.656 198.596 153.27C198.099 152.437 197.416 151.266 196.648 149.929L196.769 149.978C196.439 150.077 196.14 150.313 195.925 150.62C195.672 150.972 195.551 151.392 195.505 151.805C195.459 152.219 195.481 152.627 195.516 153.015C195.585 153.793 195.71 154.487 195.843 155.064C195.975 155.64 196.116 156.099 196.214 156.416C196.314 156.732 196.372 156.906 196.357 156.913Z" fill="#EB996E"/>
<path d="M195.104 157.589C195.089 157.589 195.073 157.419 195.055 157.11C195.041 156.757 195.023 156.321 195.002 155.805C194.967 154.703 194.933 153.18 194.909 151.498C194.896 149.818 194.83 148.29 194.975 147.182C195.045 146.631 195.155 146.192 195.257 145.898C195.357 145.603 195.438 145.452 195.449 145.456C195.486 145.468 195.22 146.105 195.126 147.198C195.022 148.288 195.11 149.812 195.123 151.495C195.147 153.177 195.157 154.7 195.154 155.803C195.148 156.319 195.143 156.755 195.139 157.109C195.13 157.418 195.119 157.589 195.104 157.589Z" fill="#EB996E"/>
<path d="M190.662 171.415C190.632 171.39 190.96 171.003 191.366 170.303C191.572 169.954 191.781 169.519 191.977 169.022C192.164 168.522 192.332 167.959 192.445 167.353C192.551 166.746 192.591 166.159 192.591 165.625C192.58 165.091 192.537 164.61 192.466 164.212C192.331 163.413 192.158 162.936 192.195 162.923C192.209 162.918 192.262 163.033 192.345 163.248C192.432 163.461 192.527 163.782 192.614 164.184C192.706 164.586 192.766 165.076 192.788 165.621C192.799 166.167 192.764 166.769 192.656 167.391C192.54 168.011 192.361 168.588 192.16 169.095C191.95 169.599 191.722 170.036 191.496 170.381C191.273 170.727 191.071 170.994 190.916 171.163C190.763 171.335 190.673 171.425 190.662 171.415Z" fill="#EB996E"/>
<path d="M199.882 168.835L204.437 170.416C204.437 170.416 208.786 168.166 211.785 170.416C214.784 172.665 217.389 178.594 216.565 180.993C216.565 180.993 214.495 183.549 212.92 183.924C211.345 184.299 205.224 182.816 202.677 182.28C200.123 181.742 195.738 178.889 195.738 178.889L199.882 168.835Z" fill="#FFBE9D"/>
<path d="M200.441 175.546C200.426 175.546 200.409 175.402 200.392 175.143C200.374 174.834 200.352 174.468 200.327 174.042C200.279 173.113 200.216 171.828 200.197 170.406C200.176 168.984 200.216 167.693 200.302 166.763C200.342 166.299 200.393 165.923 200.44 165.666C200.487 165.409 200.52 165.269 200.534 165.271C200.568 165.276 200.497 165.847 200.453 166.774C200.406 167.701 200.39 168.984 200.411 170.403C200.437 171.794 200.46 173.051 200.478 174.038C200.484 174.503 200.483 174.881 200.475 175.141C200.467 175.402 200.455 175.546 200.441 175.546Z" fill="#EB996E"/>
<path d="M215.459 170.237C215.424 170.269 214.958 169.621 213.944 168.871C212.946 168.124 211.324 167.326 209.405 167.219C207.484 167.115 205.785 167.729 204.711 168.363C203.62 168.996 203.086 169.589 203.055 169.553C203.046 169.545 203.173 169.393 203.431 169.147C203.688 168.9 204.09 168.571 204.633 168.233C205.706 167.554 207.442 166.898 209.416 167.005C211.39 167.115 213.044 167.959 214.035 168.751C214.538 169.146 214.902 169.518 215.13 169.792C215.359 170.065 215.469 170.23 215.459 170.237Z" fill="#263238"/>
<path d="M214.876 166.439C214.846 166.483 214.238 165.869 212.981 165.394C211.743 164.909 209.823 164.685 207.852 165.24C206.869 165.514 205.97 165.908 205.2 166.344C204.432 166.784 203.79 167.265 203.279 167.701C202.768 168.137 202.377 168.518 202.109 168.783C201.841 169.048 201.692 169.195 201.68 169.184C201.67 169.175 201.798 169.009 202.048 168.725C202.299 168.441 202.676 168.042 203.18 167.586C203.682 167.131 204.325 166.63 205.102 166.173C205.88 165.719 206.792 165.314 207.795 165.033C209.814 164.465 211.785 164.72 213.036 165.253C213.667 165.512 214.138 165.81 214.438 166.044C214.592 166.155 214.695 166.263 214.771 166.327C214.844 166.395 214.88 166.433 214.876 166.439Z" fill="#263238"/>
<path d="M214.911 163.147C214.899 163.189 214.103 162.945 212.78 162.767C212.12 162.673 211.326 162.62 210.445 162.618C209.565 162.632 208.598 162.704 207.595 162.875C206.594 163.057 205.66 163.319 204.828 163.607C204.001 163.909 203.272 164.23 202.683 164.544C201.501 165.164 200.836 165.664 200.811 165.628C200.802 165.616 200.965 165.487 201.267 165.264C201.417 165.15 201.604 165.015 201.833 164.877C202.06 164.736 202.312 164.564 202.612 164.41C203.197 164.076 203.927 163.737 204.76 163.421C205.599 163.119 206.544 162.848 207.558 162.664C208.573 162.491 209.554 162.423 210.445 162.421C211.337 162.434 212.138 162.503 212.802 162.617C213.136 162.659 213.432 162.735 213.694 162.79C213.956 162.842 214.177 162.904 214.357 162.96C214.718 163.067 214.915 163.133 214.911 163.147Z" fill="#263238"/>
<path d="M180.017 122.865C180.017 122.865 180.229 123.259 180.333 124.076C180.445 124.888 180.429 126.104 180.16 127.61C180.025 128.363 179.842 129.19 179.571 130.073C179.288 130.957 178.86 131.861 178.375 132.809C177.394 134.701 176.16 136.764 174.73 138.964L174.563 139.221L174.562 138.913C174.56 137.459 174.558 135.934 174.555 134.349L174.715 134.425C173.491 135.414 172.201 136.454 170.873 137.526L170.907 137.477C170.017 140.299 169.43 143.44 169.198 146.711C168.822 151.718 169.125 156.506 169.361 160.85C169.564 165.2 169.696 169.117 169.832 172.407C169.962 175.696 170.081 178.357 170.18 180.195C170.234 181.106 170.276 181.817 170.305 182.311C170.321 182.545 170.333 182.727 170.342 182.861C170.349 182.985 170.347 183.049 170.347 183.049C170.347 183.049 170.335 182.986 170.32 182.863C170.306 182.73 170.287 182.548 170.263 182.314C170.217 181.832 170.158 181.119 170.097 180.2C169.973 178.363 169.831 175.702 169.681 172.414C169.533 169.122 169.358 165.207 169.164 160.86C168.917 156.52 168.607 151.721 168.985 146.695C169.218 143.411 169.809 140.252 170.71 137.414L170.719 137.384L170.744 137.364C172.074 136.295 173.365 135.257 174.592 134.271L174.752 134.142L174.752 134.348C174.749 135.933 174.747 137.459 174.745 138.913L174.577 138.862C177.404 134.479 179.702 130.671 180.056 127.59C180.339 126.095 180.371 124.89 180.277 124.082C180.238 123.677 180.158 123.375 180.108 123.171C180.044 122.971 180.017 122.865 180.017 122.865Z" fill="#263238"/>
<path d="M172.635 175.929L172.488 175.924C171.893 175.941 171.363 176.485 171.361 177.081C171.36 177.676 171.887 178.223 172.481 178.244C173.077 178.265 173.64 177.755 173.68 177.161C173.719 176.567 173.228 175.987 172.635 175.929Z" fill="white"/>
<path d="M172.635 160.074L172.488 160.069C171.893 160.086 171.363 160.63 171.361 161.225C171.36 161.82 171.887 162.368 172.481 162.389C173.077 162.409 173.64 161.9 173.68 161.306C173.719 160.712 173.228 160.132 172.635 160.074Z" fill="white"/>
<path d="M172.481 145.89C173.077 145.91 173.64 145.401 173.68 144.807C173.719 144.213 173.228 143.633 172.635 143.575L172.488 143.57C171.893 143.587 171.363 144.131 171.361 144.726C171.359 145.321 171.887 145.869 172.481 145.89Z" fill="white"/>
<path d="M154.721 104.288C153.279 102.691 151.824 101.077 150.773 99.1994C149.722 97.3219 149.094 95.131 149.442 93.0075C149.646 91.766 150.173 90.5833 150.257 89.3278C150.373 87.6001 149.646 85.795 150.259 84.1759C151.216 81.6451 154.623 81.2539 156.688 79.5056C158.297 78.144 159.081 75.9333 160.85 74.7885C162.396 73.788 164.382 73.8098 166.205 74.0678C168.028 74.3257 169.862 74.7856 171.687 74.5404C172.988 74.3656 174.213 73.8394 175.487 73.5239C176.761 73.2084 178.183 73.1253 179.318 73.7847C180.453 74.4442 181.09 76.0551 180.345 77.1366C182.46 76.1616 185.146 77.8096 185.725 80.0651C186.304 82.3206 185.145 84.7571 183.353 86.2446C181.562 87.7317 179.244 88.424 176.956 88.8552C170.478 90.0761 163.451 89.3875 157.868 85.8814" fill="#263238"/>
<path d="M177.495 126.072C177.179 123.62 176.92 121.574 176.904 121.319C176.904 121.319 185.1 119.478 184.648 111.191C184.429 107.187 183.308 98.9755 182.209 91.5585C181.027 83.5933 173.917 77.8753 165.883 78.4129L165.084 78.4664C156.503 79.5458 152.626 87.4362 153.943 95.9836L158.573 124.644C158.573 124.644 160.548 130.984 164.774 132.081L170.107 139.7L170.989 136.42L174.964 132.959C174.964 132.959 175.876 131.972 176.924 130.042C177.78 128.464 177.6 126.841 177.495 126.072Z" fill="#FFBE9D"/>
<path d="M176.91 121.193C176.91 121.193 171.705 121.969 165.91 118.847C165.91 118.847 168.86 124.635 177.072 123.337L176.91 121.193Z" fill="#EB996E"/>
<path d="M179.532 98.6772C179.596 99.3 179.121 99.8677 178.472 99.9463C177.823 100.024 177.245 99.5847 177.182 98.9615C177.118 98.3387 177.592 97.7702 178.24 97.6916C178.89 97.6134 179.468 98.0544 179.532 98.6772Z" fill="#263238"/>
<path d="M180.708 95.74C180.571 95.9037 179.631 95.3006 178.359 95.3895C177.087 95.4594 176.197 96.1764 176.048 96.03C175.976 95.9654 176.106 95.677 176.493 95.3541C176.874 95.0328 177.537 94.7 178.33 94.6507C179.123 94.6021 179.809 94.8489 180.212 95.1221C180.624 95.3961 180.775 95.6659 180.708 95.74Z" fill="#263238"/>
<path d="M167.506 99.5329C167.57 100.156 167.095 100.723 166.446 100.802C165.798 100.88 165.22 100.44 165.156 99.8175C165.092 99.1947 165.567 98.6262 166.215 98.5476C166.864 98.4691 167.443 98.9101 167.506 99.5329Z" fill="#263238"/>
<path d="M168.217 96.8107C168.081 96.9748 167.14 96.3718 165.868 96.4602C164.597 96.5305 163.706 97.2471 163.558 97.1007C163.486 97.0361 163.615 96.7482 164.004 96.4248C164.384 96.1031 165.047 95.7708 165.84 95.721C166.633 95.6724 167.319 95.9197 167.723 96.1924C168.133 96.4672 168.285 96.7371 168.217 96.8107Z" fill="#263238"/>
<path d="M173.466 105.943C173.455 105.871 174.237 105.681 175.508 105.432C175.831 105.377 176.134 105.292 176.174 105.066C176.235 104.826 176.075 104.485 175.892 104.118C175.535 103.352 175.16 102.549 174.766 101.708C173.196 98.2745 172.037 95.443 172.175 95.3809C172.314 95.3192 173.699 98.0511 175.269 101.485C175.648 102.332 176.011 103.139 176.356 103.912C176.503 104.273 176.743 104.678 176.61 105.176C176.539 105.424 176.312 105.617 176.108 105.687C175.904 105.764 175.721 105.78 175.561 105.8C174.276 105.956 173.476 106.015 173.466 105.943Z" fill="#263238"/>
<path d="M168.194 91.8057C168.091 92.1599 166.81 92.0809 165.329 92.3611C163.843 92.6112 162.668 93.1287 162.449 92.8317C162.351 92.6889 162.539 92.3496 163.003 91.9822C163.463 91.6153 164.212 91.2463 165.101 91.0863C165.991 90.9287 166.821 91.0159 167.379 91.2006C167.943 91.3845 168.237 91.6379 168.194 91.8057Z" fill="#263238"/>
<path d="M179.985 92.0879C179.781 92.3919 178.884 92.1505 177.829 92.2068C176.773 92.2262 175.896 92.5314 175.67 92.2426C175.571 92.1019 175.691 91.8029 176.063 91.5034C176.429 91.2051 177.057 90.9394 177.783 90.9127C178.509 90.8872 179.154 91.1072 179.54 91.3787C179.932 91.6511 180.075 91.9403 179.985 92.0879Z" fill="#263238"/>
<path d="M155.027 102.067C154.882 102.015 149.226 100.765 149.785 106.413C150.344 112.062 156.466 110.22 156.459 110.057C156.453 109.894 155.027 102.067 155.027 102.067Z" fill="#FFBE9D"/>
<path d="M153.945 108.203C153.918 108.187 153.853 108.281 153.694 108.374C153.539 108.464 153.265 108.543 152.96 108.462C152.342 108.302 151.745 107.405 151.617 106.39C151.552 105.877 151.611 105.377 151.753 104.953C151.885 104.523 152.124 104.208 152.419 104.125C152.711 104.026 152.941 104.185 153.026 104.337C153.117 104.488 153.093 104.604 153.124 104.611C153.141 104.624 153.235 104.504 153.167 104.276C153.132 104.166 153.053 104.039 152.91 103.944C152.763 103.846 152.558 103.81 152.351 103.853C151.919 103.927 151.566 104.366 151.41 104.831C151.23 105.3 151.151 105.863 151.225 106.439C151.374 107.573 152.062 108.581 152.902 108.736C153.309 108.8 153.629 108.648 153.787 108.497C153.948 108.34 153.965 108.211 153.945 108.203Z" fill="#EB996E"/>
<path d="M181.789 83.8382C181.401 86.0867 176.841 88.1468 173.06 88.0366C169.574 87.935 167.852 86.2056 165.32 84.9764C163.717 84.1985 163.717 84.1985 161.541 84.5519C159.783 84.8378 158.869 86.9131 157.882 88.3961C159.763 92.497 159.003 97.2656 158.206 101.706C158.118 102.197 158.008 102.727 157.634 103.056C156.999 103.616 155.97 103.281 155.345 102.709C154.345 101.794 153.89 100.436 153.562 99.1213C152.816 96.1249 152.529 92.9874 153.003 89.9359C153.477 86.8848 154.739 83.9205 156.824 81.6427C159.43 78.7961 163.238 77.1551 167.092 76.9568C170.946 76.759 174.817 77.9515 178.045 80.0664C179.543 81.0475 180.943 82.2606 181.789 83.8382Z" fill="#263238"/>
<path d="M174.289 108.798C173.329 108.35 172.37 107.903 171.41 107.455C171.245 107.378 171.067 107.299 170.886 107.323C170.682 107.35 170.519 107.503 170.388 107.662C169.72 108.471 169.552 109.692 170.069 110.604C170.586 111.516 171.802 111.998 172.771 111.597C173.791 111.175 174.287 109.99 174.367 108.888L174.289 108.798Z" fill="#EB996E"/>
<path d="M172.862 111.801C172.87 111.826 172.729 111.909 172.441 111.969C172.155 112.024 171.714 112.045 171.202 111.878C170.696 111.715 170.125 111.321 169.772 110.69C169.413 110.074 169.284 109.204 169.597 108.419C169.747 108.029 169.981 107.684 170.265 107.412C170.41 107.274 170.559 107.161 170.732 107.059C170.822 107.009 170.935 106.96 171.064 106.953C171.191 106.946 171.305 106.979 171.398 107.018C171.586 107.102 171.708 107.192 171.847 107.272C171.981 107.355 172.112 107.435 172.239 107.513C172.487 107.668 172.722 107.815 172.94 107.952C173.794 108.494 174.307 108.855 174.278 108.906C174.248 108.957 173.681 108.689 172.788 108.214C172.561 108.091 172.318 107.96 172.061 107.821C171.93 107.748 171.796 107.674 171.658 107.598C171.52 107.524 171.371 107.431 171.251 107.384C171.12 107.338 171.062 107.341 170.936 107.414C170.81 107.493 170.674 107.598 170.557 107.714C170.32 107.948 170.124 108.242 169.997 108.572C169.734 109.235 169.829 109.955 170.119 110.5C170.406 111.053 170.87 111.413 171.309 111.594C171.751 111.778 172.151 111.805 172.424 111.803C172.698 111.797 172.853 111.77 172.862 111.801Z" fill="#263238"/>
<path d="M171.958 98.8158C171.925 98.8187 171.963 98.2896 171.733 97.3854C171.506 96.499 170.915 95.1953 169.582 94.1871C168.922 93.6947 168.09 93.2763 167.132 93.1089C166.179 92.9472 165.105 92.9785 164.083 93.3684C163.569 93.5478 163.073 93.8181 162.617 94.1595C162.156 94.4944 161.738 94.9098 161.393 95.3911C160.68 96.3398 160.279 97.5586 160.267 98.8149C160.278 100.072 160.68 101.291 161.393 102.24C161.737 102.722 162.156 103.137 162.617 103.472C163.073 103.813 163.569 104.084 164.083 104.264C165.105 104.653 166.179 104.685 167.131 104.523C168.09 104.355 168.921 103.937 169.582 103.444C170.915 102.436 171.506 101.132 171.733 100.246C171.963 99.3419 171.925 98.8129 171.958 98.8158C171.962 98.8158 171.964 98.8483 171.964 98.9116C171.963 98.9881 171.962 99.0803 171.961 99.193C171.961 99.3172 171.954 99.4703 171.924 99.6496C171.901 99.8294 171.878 100.038 171.814 100.266C171.717 100.728 171.51 101.276 171.176 101.858C170.839 102.438 170.348 103.046 169.674 103.565C169.003 104.078 168.151 104.516 167.164 104.697C166.184 104.872 165.075 104.846 164.016 104.449C163.483 104.266 162.968 103.988 162.495 103.637C162.017 103.291 161.582 102.862 161.223 102.364C160.483 101.383 160.064 100.117 160.053 98.8149C160.064 97.513 160.483 96.2476 161.224 95.2669C161.583 94.7692 162.017 94.3401 162.495 93.995C162.969 93.6432 163.483 93.3656 164.016 93.1825C165.075 92.7851 166.184 92.7592 167.164 92.934C168.151 93.1146 169.002 93.5532 169.674 94.0665C170.348 94.5845 170.839 95.1925 171.176 95.7725C171.51 96.355 171.717 96.9029 171.814 97.3649C171.878 97.5924 171.901 97.8013 171.925 97.9811C171.955 98.1605 171.961 98.3135 171.961 98.4377C171.963 98.5504 171.963 98.643 171.965 98.7191C171.964 98.7837 171.962 98.8158 171.958 98.8158Z" fill="#263238"/>
<path d="M186.043 98.2621C186.01 98.265 186.046 97.7495 185.823 96.8688C185.601 96.0053 185.026 94.7355 183.727 93.7535C183.084 93.2739 182.274 92.8666 181.34 92.7033C180.412 92.5462 179.366 92.5766 178.371 92.9563C177.87 93.1307 177.387 93.3944 176.943 93.7268C176.494 94.0526 176.087 94.4578 175.751 94.9263C175.056 95.8503 174.666 97.0375 174.654 98.2609C174.665 99.4847 175.056 100.672 175.75 101.597C176.086 102.066 176.494 102.47 176.943 102.797C177.387 103.129 177.87 103.393 178.371 103.568C179.366 103.947 180.412 103.978 181.34 103.82C182.274 103.657 183.084 103.25 183.727 102.77C185.026 101.788 185.602 100.518 185.823 99.655C186.047 98.7743 186.01 98.2592 186.043 98.2621C186.05 98.2621 186.051 98.3884 186.046 98.6299C186.046 98.7508 186.04 98.9001 186.011 99.075C185.988 99.2502 185.966 99.4538 185.903 99.6756C185.704 100.557 185.14 101.867 183.819 102.891C183.164 103.392 182.334 103.819 181.372 103.996C180.417 104.166 179.336 104.141 178.303 103.754C177.783 103.575 177.282 103.305 176.82 102.962C176.354 102.625 175.93 102.207 175.581 101.722C174.859 100.765 174.45 99.5316 174.439 98.2617C174.451 96.9922 174.859 95.7589 175.581 94.8029C175.931 94.3175 176.354 93.8996 176.82 93.5631C177.282 93.2204 177.783 92.9497 178.303 92.7712C179.335 92.3837 180.416 92.359 181.371 92.5289C182.333 92.7049 183.164 93.1328 183.818 93.633C185.139 94.6573 185.703 95.9667 185.903 96.8486C185.965 97.0708 185.987 97.274 186.01 97.4497C186.039 97.6245 186.045 97.7738 186.045 97.8947C186.051 98.1358 186.05 98.2621 186.043 98.2621Z" fill="#263238"/>
<path d="M174.545 96.9608C174.522 96.9847 174.386 96.8703 174.136 96.7518C173.888 96.6334 173.517 96.5174 173.1 96.5248C172.682 96.5305 172.316 96.6601 172.073 96.788C171.828 96.916 171.697 97.0365 171.672 97.0139C171.653 96.9978 171.748 96.8333 171.993 96.6589C172.235 96.4861 172.633 96.317 173.096 96.3109C173.559 96.3026 173.962 96.4569 174.209 96.6202C174.462 96.7843 174.565 96.944 174.545 96.9608Z" fill="#263238"/>
<path d="M160.516 97.977C160.551 98.0243 159.397 98.9462 157.938 100.035C156.478 101.125 155.267 101.969 155.231 101.922C155.196 101.874 156.35 100.953 157.809 99.8631C159.269 98.7742 160.48 97.9297 160.516 97.977Z" fill="#263238"/>
<g opacity="0.3">
<path d="M155.644 124.751C155.072 130.334 157.195 136.226 161.672 139.61C162.024 139.875 162.465 140.139 162.879 139.989C163.167 139.885 163.351 139.609 163.503 139.344C164.78 137.134 165.208 134.696 164.838 132.171C164.129 134.038 163.521 135.871 162.805 137.824C158.904 135.455 156.472 130.418 155.644 124.751Z" fill="black"/>
</g>
<path opacity="0.3" d="M170.801 137.445L174.086 136.245L174.63 141.802C174.63 141.802 178.176 135.34 179.643 132.391C181.11 129.443 180.356 124.24 180.356 124.24C180.356 124.24 180.881 128.772 177.328 134.553L174.646 138.912V134.347L170.801 137.445Z" fill="black"/>
<g opacity="0.3">
<path d="M132.582 165.689C131.117 164.997 129.431 164.904 127.822 165.092C126.121 165.29 124.415 165.81 123.083 166.885C121.751 167.96 120.848 169.654 121.014 171.357L121.178 171.381C122.324 168.278 124.605 166.02 127.546 165.746C130.486 165.473 133.356 166.782 135.374 168.938C135.178 167.329 134.048 166.381 132.582 165.689Z" fill="black"/>
</g>
<g opacity="0.3">
<path d="M215.671 168.861C214.57 167.673 213.023 166.953 211.427 166.675C208.625 166.186 205.618 167.056 203.51 168.967L204.137 168.458C205.729 167.526 207.565 166.973 209.409 167.026C211.254 167.078 213.1 167.76 214.435 169.033C215.664 170.204 216.402 171.784 217.106 173.327C217.381 171.731 216.772 170.05 215.671 168.861Z" fill="black"/>
</g>
<path d="M194.488 143.052C194.475 143.046 194.528 142.886 194.636 142.602C194.763 142.277 194.919 141.878 195.103 141.407C195.501 140.399 196.047 139.005 196.623 137.457C197.199 135.907 197.697 134.496 198.055 133.473C198.223 132.995 198.366 132.591 198.482 132.262C198.586 131.977 198.65 131.822 198.664 131.826C198.678 131.831 198.641 131.995 198.562 132.288C198.483 132.581 198.359 133.002 198.198 133.52C197.877 134.557 197.401 135.979 196.824 137.532C196.247 139.083 195.677 140.471 195.243 141.465C195.026 141.962 194.844 142.362 194.713 142.636C194.581 142.909 194.502 143.057 194.488 143.052Z" fill="#263238"/>
<path d="M142.627 143.456C142.569 143.468 142.122 141.51 141.629 139.084C141.135 136.657 140.782 134.68 140.84 134.669C140.898 134.657 141.345 136.614 141.839 139.041C142.332 141.467 142.685 143.444 142.627 143.456Z" fill="#263238"/>
<path d="M141.857 167.926C141.987 167.992 140.35 155.107 140.35 155.107C140.35 155.107 141.383 145.33 141.964 144.877L141.979 141.427C141.979 141.427 143.578 140.459 144.007 142.023C144.007 142.023 145.425 140.791 145.673 143.722C145.92 146.653 145.973 149.649 145.973 149.649L149.129 157.54L149.648 157.803C149.648 157.803 150.326 151.621 150.721 150.711C151.115 149.801 151.385 147.589 152.881 147.92C154.378 148.252 154.502 149.49 154.233 151.507C153.964 153.525 153.629 155.606 153.754 156.909C153.879 158.212 154.471 161.079 154.289 163.357C154.107 165.636 152.86 168.039 151.55 169.726C150.241 171.413 147.739 174.903 146.379 175.954C145.905 176.322 141.857 167.926 141.857 167.926Z" fill="#FFBE9D"/>
<path d="M143.447 157.442C143.432 157.441 143.436 157.245 143.456 156.89C143.483 156.495 143.517 155.993 143.558 155.393C143.655 154.131 143.802 152.387 143.979 150.463C144.07 149.503 144.157 148.589 144.236 147.75C144.277 147.336 144.303 146.944 144.25 146.587C144.201 146.231 144.061 145.921 143.857 145.698C143.44 145.246 142.904 145.132 142.569 145.132C142.221 145.13 142.038 145.224 142.031 145.201C142.029 145.194 142.072 145.171 142.159 145.134C142.248 145.101 142.384 145.059 142.566 145.049C142.918 145.023 143.495 145.114 143.968 145.595C144.201 145.833 144.366 146.178 144.426 146.559C144.49 146.941 144.468 147.35 144.433 147.768C144.358 148.607 144.277 149.522 144.192 150.482C144.016 152.407 143.844 154.148 143.71 155.407C143.641 156.004 143.584 156.504 143.539 156.898C143.494 157.25 143.462 157.443 143.447 157.442Z" fill="#EB996E"/>
<path d="M145.147 152.171C145.178 152.197 144.827 152.506 144.589 153.188C144.335 153.86 144.243 154.869 144.064 155.97C143.894 157.071 143.729 158.066 143.598 158.785C143.468 159.504 143.372 159.947 143.343 159.942C143.314 159.938 143.356 159.487 143.448 158.762C143.541 158.038 143.682 157.039 143.852 155.937C144.031 154.842 144.146 153.825 144.448 153.134C144.59 152.789 144.765 152.536 144.904 152.382C145.042 152.225 145.14 152.163 145.147 152.171Z" fill="#EB996E"/>
<path d="M143.987 141.853C144.002 141.851 144.04 141.995 144.097 142.258C144.155 142.522 144.226 142.905 144.305 143.38C144.462 144.331 144.634 145.652 144.743 147.119C144.851 148.587 144.875 149.92 144.859 150.883C144.851 151.365 144.837 151.754 144.819 152.023C144.801 152.292 144.784 152.441 144.77 152.44C144.738 152.44 144.731 151.844 144.708 150.884C144.685 149.923 144.637 148.597 144.529 147.135C144.421 145.674 144.274 144.355 144.155 143.402C144.036 142.448 143.956 141.858 143.987 141.853Z" fill="#EB996E"/>
<path d="M153.091 153.933C153.122 153.982 152.629 154.211 152.028 154.023C151.424 153.843 151.143 153.378 151.196 153.355C151.243 153.314 151.559 153.663 152.09 153.819C152.617 153.986 153.074 153.873 153.091 153.933Z" fill="#EB996E"/>
<path d="M142.034 166.324L133.696 169.828H128.729C128.729 169.828 123.815 171.361 123.059 175.967C122.303 180.573 122.195 182.943 124.355 183.513C126.515 184.083 132.616 184.146 135.64 183.142C138.664 182.139 146.584 175.748 146.584 175.748L147.348 171.124L142.034 166.324Z" fill="#FFBE9D"/>
<path d="M143.984 171.414C143.974 171.424 143.89 171.346 143.747 171.196C143.599 171.051 143.417 170.812 143.206 170.507C142.794 169.892 142.343 168.959 142.041 167.87C141.73 166.784 141.597 165.769 141.528 165.037C141.464 164.303 141.468 163.847 141.495 163.845C141.527 163.843 141.577 164.294 141.678 165.019C141.785 165.742 141.94 166.742 142.247 167.811C142.544 168.883 142.962 169.803 143.334 170.426C143.709 171.049 144.014 171.387 143.984 171.414Z" fill="#EB996E"/>
<path d="M147.609 172.876C147.564 172.86 147.94 172.226 148.084 171.089C148.153 170.524 148.147 169.837 147.986 169.104C147.826 168.368 147.474 167.611 146.964 166.904C146.457 166.194 145.888 165.576 145.408 164.978C144.923 164.384 144.535 163.801 144.281 163.274C144.025 162.748 143.907 162.282 143.863 161.959C143.821 161.635 143.838 161.454 143.848 161.454C143.89 161.445 143.876 162.19 144.416 163.206C144.681 163.712 145.072 164.272 145.56 164.853C146.044 165.439 146.62 166.054 147.138 166.781C147.66 167.502 148.025 168.299 148.178 169.062C148.334 169.823 148.324 170.532 148.234 171.109C148.143 171.688 147.984 172.137 147.851 172.434C147.788 172.584 147.726 172.694 147.683 172.768C147.641 172.842 147.615 172.879 147.609 172.876Z" fill="#EB996E"/>
<path d="M134.759 152.8C134.706 152.827 133.796 151.172 132.727 149.104C131.657 147.035 130.833 145.336 130.885 145.308C130.938 145.281 131.847 146.936 132.917 149.005C133.987 151.074 134.811 152.773 134.759 152.8Z" fill="white"/>
<path d="M148.244 137.789C148.19 137.765 148.752 136.385 149.5 134.707C150.248 133.029 150.897 131.688 150.951 131.712C151.005 131.737 150.443 133.116 149.696 134.795C148.948 136.473 148.298 137.813 148.244 137.789Z" fill="white"/>
<path d="M161.446 147.531C161.401 147.569 160.554 146.622 159.557 145.417C158.558 144.211 157.787 143.203 157.832 143.166C157.878 143.128 158.723 144.075 159.722 145.28C160.72 146.486 161.492 147.494 161.446 147.531Z" fill="white"/>
<path d="M158.411 160.931C158.363 160.896 159.001 159.936 159.834 158.785C160.669 157.635 161.384 156.73 161.432 156.765C161.48 156.8 160.843 157.761 160.008 158.911C159.174 160.061 158.459 160.966 158.411 160.931Z" fill="white"/>
<path d="M154.319 179.856C154.293 179.869 154.106 179.554 153.836 179.03C153.566 178.505 153.216 177.768 152.863 176.939C152.511 176.11 152.224 175.346 152.034 174.787C151.843 174.229 151.747 173.876 151.774 173.866C151.802 173.856 151.949 174.191 152.176 174.734C152.434 175.353 152.732 176.067 153.061 176.855C153.4 177.639 153.707 178.35 153.973 178.965C154.207 179.505 154.346 179.843 154.319 179.856Z" fill="white"/>
<path d="M165.941 171.81C165.93 171.868 164.811 171.7 163.444 171.435C162.075 171.17 160.975 170.909 160.986 170.851C160.998 170.793 162.116 170.96 163.484 171.225C164.852 171.49 165.952 171.752 165.941 171.81Z" fill="white"/>
<path d="M174.949 154.127C174.905 154.086 175.972 152.866 177.33 151.401C178.689 149.935 179.825 148.781 179.868 148.821C179.912 148.861 178.846 150.081 177.487 151.547C176.128 153.012 174.992 154.167 174.949 154.127Z" fill="white"/>
<path d="M184.012 177.712C183.967 177.749 182.636 176.21 181.042 174.274C179.446 172.337 178.19 170.737 178.236 170.699C178.281 170.661 179.611 172.2 181.207 174.137C182.802 176.074 184.058 177.674 184.012 177.712Z" fill="white"/>
<path d="M127.743 167.659C127.774 167.718 126.558 168.334 125.234 169.35C123.903 170.359 122.988 171.368 122.939 171.324C122.918 171.306 123.122 171.03 123.498 170.625C123.875 170.22 124.432 169.693 125.104 169.18C125.776 168.668 126.432 168.27 126.921 168.014C127.412 167.758 127.731 167.634 127.743 167.659Z" fill="white"/>
<path d="M131.133 158.569C131.182 158.601 130.749 159.339 130.166 160.215C129.583 161.091 129.071 161.776 129.021 161.743C128.972 161.71 129.405 160.973 129.988 160.096C130.571 159.22 131.083 158.536 131.133 158.569Z" fill="white"/>
<path d="M138.768 167.495C138.721 167.523 138.293 166.804 138.069 165.806C137.839 164.809 137.914 163.975 137.969 163.98C138.033 163.98 138.054 164.792 138.277 165.758C138.494 166.726 138.826 167.468 138.768 167.495Z" fill="white"/>
<path d="M139.901 139.144C139.909 139.202 139.199 139.351 138.316 139.477C137.433 139.603 136.709 139.657 136.701 139.599C136.693 139.54 137.402 139.391 138.286 139.265C139.169 139.139 139.893 139.085 139.901 139.144Z" fill="white"/>
<path d="M145.637 128.972C145.666 129.024 145.045 129.423 144.25 129.864C143.455 130.304 142.788 130.619 142.759 130.568C142.73 130.516 143.351 130.117 144.146 129.676C144.941 129.236 145.608 128.921 145.637 128.972Z" fill="white"/>
<path d="M161.765 133.269C161.718 133.304 161.007 132.451 160.179 131.362C159.349 130.273 158.715 129.361 158.762 129.325C158.809 129.29 159.52 130.143 160.349 131.232C161.178 132.321 161.813 133.233 161.765 133.269Z" fill="white"/>
<path d="M182.244 143.497C182.204 143.535 181.456 142.765 180.762 141.645C180.064 140.527 179.704 139.516 179.755 139.497C179.813 139.472 180.256 140.431 180.944 141.532C181.626 142.635 182.292 143.456 182.244 143.497Z" fill="white"/>
<path d="M190.056 146.074C190.11 146.098 189.73 147.051 189.208 148.202C188.686 149.353 188.219 150.266 188.165 150.241C188.111 150.217 188.491 149.264 189.013 148.113C189.536 146.963 190.002 146.049 190.056 146.074Z" fill="white"/>
<path d="M191.148 135.406C191.102 135.444 190.172 134.401 189.07 133.076C187.967 131.751 187.11 130.647 187.156 130.609C187.202 130.571 188.132 131.614 189.235 132.939C190.337 134.264 191.194 135.368 191.148 135.406Z" fill="white"/>
<path d="M179.212 126.742C179.153 126.745 179.07 125.852 179.026 124.749C178.982 123.645 178.995 122.749 179.054 122.747C179.114 122.744 179.197 123.637 179.24 124.74C179.283 125.843 179.271 126.74 179.212 126.742Z" fill="white"/>
<path d="M188.942 126.202C188.95 126.261 187.813 126.461 186.403 126.649C184.992 126.838 183.842 126.944 183.834 126.885C183.826 126.826 184.963 126.626 186.374 126.437C187.785 126.248 188.935 126.143 188.942 126.202Z" fill="white"/>
<path d="M204.272 137.46C204.218 137.486 203.534 136.182 202.743 134.548C201.952 132.913 201.355 131.567 201.408 131.541C201.461 131.515 202.145 132.819 202.936 134.454C203.726 136.089 204.325 137.435 204.272 137.46Z" fill="white"/>
<path d="M201.69 147.19C201.632 147.178 201.792 146.13 202.048 144.848C202.304 143.567 202.558 142.537 202.616 142.549C202.674 142.56 202.514 143.609 202.258 144.89C202.002 146.172 201.748 147.201 201.69 147.19Z" fill="white"/>
<path d="M208.801 154.859C208.745 154.879 208.198 153.463 207.581 151.698C206.963 149.933 206.507 148.486 206.563 148.467C206.619 148.447 207.165 149.862 207.783 151.627C208.401 153.393 208.856 154.839 208.801 154.859Z" fill="white"/>
<path d="M207.81 159.345C207.799 159.397 206.813 159.192 205.732 158.602C204.647 158.018 203.936 157.304 203.974 157.267C204.016 157.218 204.774 157.844 205.834 158.413C206.889 158.99 207.828 159.283 207.81 159.345Z" fill="white"/>
<path d="M216.916 169.574C216.862 169.598 216.532 168.974 216.179 168.18C215.825 167.385 215.583 166.722 215.636 166.698C215.69 166.674 216.021 167.298 216.374 168.092C216.727 168.887 216.97 169.55 216.916 169.574Z" fill="white"/>
<path d="M163.127 183.839C163.069 183.846 162.925 183.031 162.808 182.018C162.69 181.005 162.642 180.179 162.701 180.172C162.76 180.165 162.903 180.98 163.021 181.993C163.139 183.006 163.186 183.833 163.127 183.839Z" fill="white"/>
<path d="M191.071 183.132C191.013 183.12 191.134 182.322 191.34 181.351C191.547 180.38 191.761 179.602 191.819 179.614C191.877 179.627 191.757 180.424 191.55 181.396C191.343 182.367 191.129 183.145 191.071 183.132Z" fill="white"/>
<path d="M196.432 101.562L200.045 95.1943C198.447 92.5999 197.523 89.545 197.523 86.2743C197.523 76.8671 205.149 69.2412 214.555 69.2412C223.962 69.2412 231.588 76.8671 231.588 86.2743C231.588 95.681 223.962 103.307 214.555 103.307C210.627 103.307 207.013 101.974 204.131 99.74L204.137 99.7474L196.432 101.562Z" fill="#FAFAFA"/>
<path d="M196.438 101.562C196.804 101.478 199.243 100.921 204.155 99.7981L204.234 99.78L204.185 99.715L204.179 99.7076L204.105 99.7808C205.077 100.534 206.241 101.275 207.609 101.893C208.979 102.501 210.548 102.997 212.281 103.227C213.146 103.338 214.05 103.409 214.979 103.364C215.443 103.337 215.915 103.326 216.392 103.286C216.865 103.215 217.345 103.142 217.831 103.069C219.761 102.688 221.733 101.956 223.573 100.814C225.412 99.6767 227.114 98.1316 228.479 96.2336C229.842 94.3388 230.875 92.0923 231.359 89.6509C231.838 87.2127 231.798 84.6001 231.158 82.071C230.513 79.551 229.309 77.089 227.506 75.0634L226.81 74.2979C226.581 74.0403 226.308 73.8281 226.06 73.5919C225.8 73.3686 225.566 73.1156 225.287 72.9181L224.47 72.3068C224.205 72.0929 223.913 71.9202 223.623 71.747C223.334 71.5717 223.046 71.3965 222.758 71.2221C222.456 71.0752 222.155 70.9288 221.853 70.7827C221.55 70.6429 221.258 70.4771 220.94 70.3767C218.465 69.3944 215.825 69.02 213.302 69.2031C210.778 69.3849 208.363 70.1089 206.291 71.2751C204.213 72.4319 202.461 73.9766 201.108 75.7018C199.751 77.4279 198.795 79.3317 198.204 81.2273C197.616 83.132 197.457 85.0209 197.463 86.7693C197.514 88.5221 197.833 90.1367 198.298 91.5539C198.763 92.9731 199.375 94.1936 200.007 95.2204L200.006 95.169C197.727 99.2522 196.612 101.248 196.438 101.562C196.617 101.251 197.759 99.2703 200.095 95.2187L200.109 95.1932L200.094 95.1673C199.473 94.1422 198.872 92.9262 198.417 91.5152C197.963 90.1063 197.654 88.5032 197.61 86.7647C197.61 85.0308 197.774 83.1599 198.362 81.2755C198.953 79.3996 199.904 77.518 201.251 75.8129C202.593 74.1086 204.33 72.5845 206.386 71.4438C208.436 70.294 210.823 69.5819 213.318 69.4046C215.812 69.2265 218.419 69.598 220.863 70.5696C221.177 70.6688 221.465 70.8329 221.765 70.9711C222.062 71.1155 222.36 71.2603 222.659 71.4055C222.943 71.5779 223.227 71.7511 223.512 71.9243C223.799 72.0958 224.088 72.2661 224.349 72.4776L225.157 73.0814C225.432 73.2764 225.663 73.5265 225.919 73.747C226.164 73.9807 226.434 74.1901 226.659 74.4443L227.347 75.2008C229.128 77.2013 230.318 79.6329 230.956 82.1216C231.589 84.619 231.631 87.2012 231.16 89.6106C230.685 92.0232 229.666 94.2446 228.322 96.12C226.976 97.9988 225.294 99.5299 223.478 100.659C221.66 101.793 219.71 102.523 217.8 102.906C217.319 102.98 216.844 103.053 216.375 103.125C215.903 103.166 215.435 103.179 214.975 103.206C214.055 103.254 213.159 103.186 212.301 103.08C210.582 102.858 209.024 102.373 207.661 101.776C206.3 101.17 205.14 100.439 204.17 99.6973L203.852 99.4546L204.096 99.7705L204.102 99.7779L204.131 99.6952C199.234 100.884 196.802 101.473 196.438 101.562Z" fill="#263238"/>
<path d="M219.141 85.5633C219.141 86.4827 219.886 87.2277 220.805 87.2277C221.724 87.2277 222.47 86.4827 222.47 85.5633C222.47 84.6439 221.725 83.8989 220.805 83.8989C219.886 83.8989 219.141 84.6439 219.141 85.5633Z" fill="#263238"/>
<path d="M212.492 85.5628C212.492 86.4822 213.238 87.2272 214.157 87.2272C215.076 87.2272 215.821 86.4822 215.821 85.5628C215.821 84.6434 215.076 83.8984 214.157 83.8984C213.238 83.8984 212.492 84.6434 212.492 85.5628Z" fill="#263238"/>
<path d="M205.836 84.732C205.377 85.528 205.65 86.5461 206.446 87.006C207.242 87.4655 208.26 87.1928 208.72 86.3968C209.179 85.6008 208.906 84.5827 208.111 84.1232C207.314 83.6628 206.296 83.9356 205.836 84.732Z" fill="#263238"/>
</svg>
